<svg xmlns="http://www.w3.org/2000/svg" viewBox="0 0 640.05 757.04"><defs><style>.cls-1{fill:#030403;}.cls-2{fill:#353534;}</style></defs><g id="Lag_2" data-name="Lag 2"><g id="Lag_1-2" data-name="Lag 1"><path class="cls-1" d="M78.4,425.14c-.77-4.87-.72-8.65,5.49-10.63,4.19-1.34,7.82-5,7.34-10.67a17,17,0,0,1,.78-5.9c.94-3.33.95-7.33,6.9-5.49,2.23.68,6.29.5,8.77-1.86,3.13-3,2.25-10-1.42-12.31-.93-.59-2.79-.2-1.73-2.5,2-4.37,8.9-7.33,13.33-5.42,9.21,4,14.78,2.39,20.76-5.91s11.11-17.61,18.35-25.2a3.34,3.34,0,0,0,.91-3.68c-.72-1.55-2.46-.89-3.57-.65-5.31,1.17-10.87,2.1-13.2,8.14-2.58-.11-1.27,3.16-3.12,3.7-1.92-.9-1.62-5.37-4.55-3.63-2.55,1.52-5.9,2.11-7.55,5-7.16-3-12.1-.25-17.89,4.55-6,5-13.69,9.39-22.57,5a17.93,17.93,0,0,0-4.34-1c-4.62-3.89-9.26-6.9-15.93-7.08-5.33-.14-8.76,3.07-13.16,4.38l0,.05c.27-1,.59-1.91.78-2.88,1-5.16-5.14-13.71-10.1-12.73-3.35.67-5-1-7.41-1.72-4.37-1.29-9-5.55-13.29.33-6.09,1.92-12.22,3.71-18.26,5.8-2.63.92-3.79.41-3.76-2.41,0-2.16,0-4.32.08-6.47.08-1.65.86-3.29,2.63-2.94,4.89,1,8.79-2.55,13.41-2.62,5.62,1.5,8.68-.08,9.37-5,.26-1.83,1.65-1.11,2.58-1.45L34,327.36c0,1.24.7,1.75,1.89,1.66s1.22-.87,1.22-1.74c2.63,0,5.27-.61,7.87.18.15,1.39.9,1.47,2.07,1.08,7.05-2.32,13.91-2.6,20.28,2a2,2,0,0,0,2.33,0l1.36.32c.56,1.1,1.21,1.39,2,.23l2,0c2.66,1.7,4.09.46,5-2.09l.15-.3.34,0c3.43.3,3.26-2.3,3.6-4.49a4.24,4.24,0,0,0,1.55-5.1c-2-5.68-8.16-10-14.65-10,0-2.33,1.72-3.67,3.43-4.45a8.15,8.15,0,0,0,4.66-5.28,14.6,14.6,0,0,1,6.86-.09c.84,3,4,3.73,5.87,5.71,2.81,2.93,7.41,2.22,11.11,3.64,2,.78,3.64-1.85,5.35-3.11,4.1-3,7.16-6.35,5-12-.5-1.34-.24-3-.33-4.45,6.79,6,15.76,8,23.36,12.57,4.3,2.57,6.81,1.92,8.34-1.07a5.38,5.38,0,0,1,3.51-2.57c2.13,1.23,2.78.61,2.11-1.68a.43.43,0,0,1,.29-.45c.79.21,1.57.27,1.87-.68s-.37-1.05-1-1.19l.09-2.81c.65-.22,1.32-.53.87-1.33s-1.34-.62-2.1-.24a.35.35,0,0,1-.44-.28c.08-.81.42-2-.44-2.21-1.31-.27-1.32,1-1.35,2-2.12-.7-4.43-1.07-5.65-3.31,0-4-1.09-4.74-4.52-3.06l-3.1-1.3c-1.78-4.52-5.38-4.29-9.18-3.52a.77.77,0,0,1-.82-.26c.89-1.69,2.26-3.6-1.53-2.72a13.41,13.41,0,0,1-2.91.06c-2.55-1.66-5.12-3.3-7.67-5a5.8,5.8,0,0,1-2.8-4.8c.63-1.12,1.44-1.1,2.47-.52,7.52,4.32,14.83,3.79,22-1a2.37,2.37,0,0,1,1.37-.41c6.37.33,9.33-4.55,12.91-8.43a1.83,1.83,0,0,0-.07-2.67c.06-2.76,2.61-4,4-5.74a22.46,22.46,0,0,0,4.06-8.66,7.24,7.24,0,0,1,4.36,7c0,2.56-.07,5.74,2,8.06,1.92-1.31.49-3.27,1.89-5,0,2-.3,3.52.07,4.9.64,2.39,2.78,3.81,4.91,3,2.32-.83.46-2.61-.09-4.06a11.46,11.46,0,0,1,0-7.79,73.54,73.54,0,0,0,3.38-16.94c.49-6,4.43-10.18,7.61-14.76.7-1,2-1.1,3.2-1,5.74.46,11.12,6.29,11.09,12,0,3.32,0,6.65,0,10,0,1.35.06,2.95,1.65,3.23a2.59,2.59,0,0,0,3-2.64c-.46-5,1.69-9.4,2.33-14.13.83-6.17-2-11.13-4.93-16.71,3.69-.1,7.33.51,7.9-4h0c3.47,0,7.57,1.32,10.25-.66,5.85-4.3,13.58-5.36,18.5-11.08.31-.37.73-.88,1.13-.91,4.91-.29,9.28-1.42,12.4-5.79.83-1.17,3.84-.17,3.84-2.93l4-.11c5.64,1,11.46-3.48,13-9.83a34.68,34.68,0,0,1,8.05-15.52c7.82-8.22,8.43-18.37,10.8-28.2h0c5.73-1.4,6.41-6.52,8.05-10.93,3.43-9.29,5.43-19.36,14-25.84l6.88.14c1.32,4.4,4.38,7.59,7.54,10.66s6.76,4.45,10.75,2.08c3.61-2.14,5-8.62,3.17-13.07a13.72,13.72,0,0,1-1.21-3.2c-2.21-16.74-3.62-33.51-1.47-50.37.28-2.19-.67-3.09-2.64-3.34l-.13-.1c1-9.52,4.47-17.8,13.22-22.53,3.28-1.77,5.7-5.87,9.72-5.35,7.83,1,15.57,2.33,20.45,10.09,1.66,2.64,2.47,6,5.3,7.92a.86.86,0,0,1,.38.87c.74,7,5.58,12.86,5.35,20.13a3,3,0,0,0,2.17,3l.09,6c-.4,4.41-2.2,9,1.47,12.93,1.32,5,.24,10-.1,15-3.56,5.13-1.41,11.14-2.46,16.68-.23,1.21,1.11,2.26,2.67,2.41a4.74,4.74,0,0,1,3.47,1.86,5.47,5.47,0,0,1-.86,1c-1.16.79-2.24,1.77-1.57,3.23.8,1.73,2.68,2.55,4.28,3.14s1.63-1.67,2.39-2.56c2.34-2.74-.49-5.17-.91-7.77l.95-1c2.78-.25,3.54,1.36,3.15,3.69-.88,5.28,1,10.66,2.64,14.92,2,5.2,3.45,9.18.47,14.06a2.06,2.06,0,0,0,.32,1.81c.58.74,1.85.76,2.19.1,2.06-3.86,2.45,1.57,3.84.68,1.67-2.49-1.32-4.82-.12-7.22.48-1,.13-2.71,1.73-2.6a3.06,3.06,0,0,1,2.15,1.79c1.67,5.79,3.82,11.55,4.5,17.48a47.26,47.26,0,0,1-1.57,20.23c-.37,1.15-.79,2.58.83,3.7,4.68-6.11,3.58-14.26,7.67-20.77,1.24,9-3.62,16.95-2.67,25.9.65,6.1.29,12.45,1,18.72.67,5.78,4.61,11.82-.84,17.52-.87.9-.29,3.21-.32,4.87a4.44,4.44,0,0,0,.39,1.21c1.52-.9-.15-3.28,2.08-3.68,1.73,1.24,1.82,3.32,2.66,5.06,1.78,3.72.48,8.76,3.75,11.41,3.56,2.88,5.67,7,9.29,9.63,2.4,1.77,1.85,3.76-.28,6.35,5.71-1.71,7.15,2.64,9.39,5.06,2.85,3.07,6,4.15,10.21,4-20.4-19.58-27.7-27.3-28.7-37.17,2.65,3.13,5.08,5.55,6.72,8.87,2,4,5.3,7.07,10.21,6.25a6.57,6.57,0,0,1,6,1.74c3.09,2.53,6.62.14,9.95-.25.34-.05,1-1.26.8-1.57-1.69-3.13-4.82-1-7.17-1.87a6.22,6.22,0,0,1-.74-.34c2.44-3.56,1.25-5.06-2.87-5.83-5.07-.95-9.66-3.23-12.73-7.73-5.71-8.34-10.69-17.11-12.39-27.17-.71-4.21-3.18-8.4-2.3-12.51,1.81-8.48-1.58-17.19,1.63-25.5a2.66,2.66,0,0,0,0-1.48c-1-4,.25-7.83.69-11.73.38-3.4,1.63-7.35-4-7.66a1.58,1.58,0,0,1-1.48-1.72c.26-3.93-2.41-7.26-2.15-11.19.35-5.25-3.15-8.51-6.38-11.86a2.13,2.13,0,0,0-2.66-.74,1.74,1.74,0,0,0-.78,2.17c1.26,3.19-.05,7.08,2.76,9.83.84.84,1.55,1.87.55,3.06A1.9,1.9,0,0,1,413,115c-1.12-.51-2.93-.61-2.78-2.36.57-6.27-2-12.62,1.28-18.93,1.33-2.56,1.67-6.41-1.46-9a.56.56,0,0,1,.49-.38,3.94,3.94,0,0,0,1.37.5c7-.44,10.58,2.43,12.23,9.44a28.27,28.27,0,0,0,5.12,11c2.21,5,7.15,8,9.73,12.75.27,2.86,1.94,4.17,4.71,4.25l.11.08c0,2.13,1.85,3,3.06,4.33,10.25,10.82,24.07,15.36,37.26,21a3.47,3.47,0,0,0,4.87-2.06c4.72-1.93,9.34-.83,13.95.48-1.37,1.9-3.37.88-5.09,1.06a2.74,2.74,0,0,0-2.5,2.68,3.35,3.35,0,0,0,1.92,3.72c1.93.65,1.23-1.39,1.72-2.23,1.08-1.84,2.05-1.09,3,.12q9.54,11.73,19.09,23.44a3.13,3.13,0,0,1,.58,2.8c-2.28,10.92-1.84,22.52-8.18,32.44-.66,1-1.3,2.72.31,3.46,1.27.58,2.12-.85,2.61-1.81,2.84-5.57,5.39-11.29,8.37-16.79,2.43-4.48,1.76-9.44,2.3-14.42,4.78,2.58,6.71,6.91,5.36,10.72-2.75,7.72-4.92,15.88-10.43,22.41a14.34,14.34,0,0,0-3,5.07c-2.79,10.2-7.62,19.36-13.46,28.08-1.92,2.86-3.53,5.71-6.57,7.81-4.94,3.41-10.44,4.95-16.09,6.32-1.16.28-2.6.62-2.49,2,.12,1.62,1.74,1.18,2.82,1.2,3.16.06,6.47.62,9.45-.1,5.73-1.4,12.8,1,16.8-5.87.95-1.63,1.64-3.46,3.07-5,10.76-11.44,15.35-26,20.33-40.43a60.9,60.9,0,0,0,3-23.53c-.12-2.2.36-3.89,3.09-2.24,10.16,6.13,21.2,10.55,31.58,16.25a51.49,51.49,0,0,1,8.12,8.89c1.29,1.83,3.42,3,5.14,2.19,6.42-3.11,10.34.41,14.16,4.66,2.68,6,5.67,12,2.87,19.13-2.49.26-5.8.23-8-3.39-.75-1.24-2-2.13-3-3.3-1.89-2.44-3.74-3.3-5.89-.31-.46.64-1.08,1.48-1.74,1.6-3.65.69-3.2,2.92-1.87,5.15,2.14,3.57,5,6.7,5.41,11.16a1.78,1.78,0,0,0,2.09,1.66c1-.2,1.14-1.19,1.08-2-.42-5.17,3-5,6.21-4.09,6.6,2,13.63,3,19.16,7.64,4.16,3.46,9.45,4.1,14.25,6,1.18,2.06,1.11,4.72,3.13,6.36-.18,3.11,3,5.4,2.13,8.66-1.53,0-3-.18-3.88-1.7-1.06-3.21-1.64-6.93-6.48-6.15-1.93-.49-2.06-2.23-2.6-3.7-.85-2.35-2.38-3.79-5.06-3.55-.55-2.69-2.36-2.44-3.73-1.11s-2.63.81-4,1L607,256.66c-1.28-2.76-4.17-1.58-6.19-2.54-.57-.77-1.59-1.51-1.64-2.31-.25-4.12-2.89-4.77-6.2-4.63-3.61.37-1.93,3.11-2.22,4.95-.16,1.07,1.42,2.75-1.08,3-4.71.37-2.5,3.69-2,5.67.27,1.15,1.68,2,.34,3.3l-1.13-1c-.75-1.79-1.87-3.24-4-2.68s-2.07,2.26-1.82,4l-2,1.78c-1.73-.18-2.21.86-2.27,2.31-2.92,4-5.43,8.31-8.84,11.79-8.82,9-14.24,20.32-21.51,30.34a106.24,106.24,0,0,0-9.47,15.73c-3.76,7.62-3,15.95-3.08,24-.14,18.26,2.35,36.53,0,54.79-1.07,8.42,1.4,16.52,2,24.78.5,7.52-1.52,14.43-2.34,21.62-1-.18-2.56-1-2.89.27-.45,1.78,1.39,1,2.28,1.26l-.27,2.93c-2.07.47-2,1.88-1.5,3.44a.45.45,0,0,1-.18.64c-1.15,0-2.09.23-2.13,1.65-4.93,1.37-3.49,7.07-6.66,9.74-8,6.7-11.58,17.63-21.54,22.47-3.43-3.1-2-7.56-3.14-11.29h0c2.06,1.15,3-.59,4.1-1.69.91-.95,3-1.95,1.48-3.5a2.58,2.58,0,0,0-4.2.59l-5,.89c-3.7-.93-7.39-1.82-8.91,3.25-2.1,2.15-7.43.37-6.94,5.68-.8.51-2.26,1.52-2.3,1.46-2.87-3.87-5.91-.41-8.84-.25-1.84-1.07-4.15-1.35-4.89-4-.46-1.66-2.28-2.2-4-2.36-1-2.14-3.19-2.07-5-2.67l0,0c.54-4.22-4.5-5.13-5.64-9.62,2.4,1.4,4,2.43,5.67,3.29,3.1,1.58,6.12,3.56,9.9,2.72l2.91.31c1.71,1.87,3.41,3.93,5.25.12a2.81,2.81,0,0,1,2.74,0c4,3.12,4.8-1.74,7.13-2.77,5.87-4.11,12.32-5.08,19.45-5.06,5.12,0,10.67-1.73,14.06-6.29,6-8.09,9.3-17.07,6.8-27.3-.62-2.54,1.06-5.84-2.26-7.59-1.18-2.94-2.79-5.25-6.53-4.38a.39.39,0,0,1-.55-.26,9.06,9.06,0,0,1,.79-3.18c1.19-2.63-.85-4.9-2.92-4.31-3.69,1-7.83,1-11.05,3.58l-1.76-.3c-3.32-3.52-7.4-2.39-10.7-.77-6.58,3.23-13.13,5.88-20.63,5.1a6.58,6.58,0,0,0-5.86-4.22c-7.13-.57-13.73-3.44-20.74-4.44-2.77-1.78-5.27-4.55-9.1-2.5l-4,0c-3.91-1.93-6.36-.62-7.58,3.41l-.2-.16.16.21c-2.31-1.08-3.34.57-4.39,2.08a202.92,202.92,0,0,0-15,26.57c-4.44,9.08-7.07,19.36-15.79,26.17-.49-3.95,2.09-6.27,4-8.89,1.11-1.51,1.37-3,0-4.51a1.71,1.71,0,0,0-2.66,0c-3,3.28-5.93,6.64-8.8,10.05-1.65,1.95.29,3.31,1,4.89a1.44,1.44,0,0,1-.79,2.06c-1.13.46-2.44,1-1.49,2.42.85,1.28,2,.5,3-.16,2.62-1.69,3.36-1.38,2.83,2-.51,3.26-2.19,6.5-.77,10,.6,1.48.16,2.7-1.5,3.61s-3,1.63-1.81,4.5c1.29,3.21-1.53,5.2-4.88,4.07.18-.79.35-1.58.52-2.38,1.83,0,2.24-1.14,1.93-2.68a2.55,2.55,0,0,0-2.39-2.19c-2.09-.13-4.16-.44-5.79,1.74-2.73,3.66-5.72,7.13-8.72,10.57a147.52,147.52,0,0,1-16,15.53c-.72.61-2,1.4-1.27,2.33,1.73,2.09-.49,2.87-1.27,3.33-3.38,2-5.79,6-10.81,4.82-1.1-.27-3.9,1.54-3.89,2.36.07,4.41-4.72,5.36-5.71,8.82-2.4.39-3.88,2.38-5.91,3.42-2.1,0-3.85.47-3.95,3.06h0c-2.78-.63-4.55,1.18-6.5,2.64-1.16.87-2.89,1.44-2.21,3.27.55,1.5,2.17,1.89,3.65,2,2.25.16,4.83-.39,5,3.07-.08.12-.16.24-.23.36l.19-.4c2.34-.76,4.68,2.62,7,0l1.27.61c-.55,2.24.76,3.48,2.1,5.13,3.39,4.17,8.85,2.09,12.84,4.68.94.61,6.65,1.31,5.86-4l2.81-1.7c1.55,1.53,3,3.22,5.38,1.06a2.32,2.32,0,0,1,1.8-.15c4.7,1.25,6.1,4.54,3.89,9-2.73,5.54-1.59,7.37,4.51,7.56,7,.21,13.87.3,19.91-4.08,1.2-.86,3-1.6,4.1-.34s-.41,2.74-1.09,3.94c-1.35,2.4-2.91,4.68-4.38,7l-9.93,1c-.91-2.43-2.34-2.34-4-.82-2.64.92-3.59-2.45-5.92-2.33-.74-2.26-3.34-3.34-4.61-3-4.49,1.37-6.14-.25-9.54-3.54-3.74-3.63-11.15-3.46-17-4.94l-1.91-.38c-.15-1.29.17-3.31-.54-3.77-5.5-3.63-9.9-9.57-17.58-8.87l-2.72.12c-1.28,0-2.2.45-2.19,1.92h0c-1.37-.08-2.77-.21-3.13,1.64l-7.76,6.41c-1.72-.15-3.25-.07-2.92,2.34a.43.43,0,0,1-.5.25c-2.17-.82-2.8-.06-2.1,2.06a.42.42,0,0,1-.3.41c-3.52.56-3,2.91-2.36,5.32a.69.69,0,0,1-.48.75L274.52,581c0-2.12.07-4.25.11-6.37.58-1.73-.24-2.5-1.85-2.35s-1.73,1.13-1,2.37l-.35.28c-1.89-.81-2.46-.27-1.69,1.65l-.32.3c-1.77-.88-2.42-.2-2.25,1.63a3.85,3.85,0,0,1-2.54,2.18c-2.88-1.06-3.6,1.31-4.91,3-3.56,4.46-3.75,10.14-5.54,15.22-2.86,8.13-7.34,15.37-11.43,22.84l-.15.21L233,624l0,0c0-1.35,1.53-1.68,1.94-2.57,1.47-3.14,6.08-4.8,4.46-9.37l.4-1.94c2.28-4,2.06-10.6-.44-13.24a4.3,4.3,0,0,1-1.81-3.36c-.25-6-3.41-5.58-7.37-3.57-4.21,2.14-8.42.8-12.65.17-3-.44-5.55-.51-7.91,2.29a27.21,27.21,0,0,1-8,6.34c-3.33,1.77-6.58,3.86-8.41,7.46-3.75,7.37-10,12-17.28,15.31-8.94,4.09-12.68,12.23-16.61,20.31-3.68,3.22-6.41,7-6.64,12.07l-.18,2.18c-.65,3.15-2.2,5.55-5.41,6.61a5.55,5.55,0,0,0-3.17,2.83c-4.33,3.31-9.59,5.14-13.6,9a21.31,21.31,0,0,0-6.32,12,16.62,16.62,0,0,1-1.43,4.68c-1.08,2.07-2.67,3-4.59.72-.22-1.78-1.36-2.21-2.94-2h0c-.13-2.74-1.32-5.12-4.2-3.59-3.46,1.84-3-.22-2.42-2A20.4,20.4,0,0,0,109,679c1-4.81,4.59-8.09,7.18-11.85,4.5-6.54,8.33-14,15.14-18.38,8.39-5.47,8.41-15.84,14.4-22.62,3.43-3.88,5.76-8.4,12.38-8.28,3.69.07,5.12-4.55,6.18-8.07,1.13-3.78.95-8.16,6.85-8.73,2.43-.24,2.72-4.25,4.18-6.39a29,29,0,0,0,5-14.78c1.64-6.25.07-8.11-6.58-7.79-3.5-.77-5.46,2.35-8.14,3.51-4.42,1.91-8.29,5.09-12.35,7.81a4,4,0,0,0-1,1.68c-3.82,8.25-9.24,11.6-18.64,11-5-.33-9,.06-8.64,6.61.1,1.62-.84,1.66-2.28,1.48-9.64-1.23-17.55,2.73-24.79,8.55-2.17,1.75-1.88,4.91-4.34,6.79-4.27,3.27-8.2,6.87-13.77,7.82-1.41.24-2.85.62-3.45,2.41C72.08,642.71,62.94,653.49,60,667c-.08.39-.62.68-.95,1-4.14-.38-7.39,4.51-11.89,2,0-2.1,1.4-3.16,3.11-4,2.28-.19,3.64-1.6,5.13-3.25,3.8-4.21,3.27-9.67,4.75-14.54l.7-1.12a10.72,10.72,0,0,0,3-7.49l.5-2.58c4.35-3,3.78-7.57,3.76-12l.37-3c.43-.2,1-.27,1.26-.6,3-4.34,6.46-6.75,12.25-5.52,3.26.7,7.3.63,9.16-3.58l1.33-2.3c6.93-8.52,15.14-14.51,26.46-16.54,4-.71,9.06-3.76,8.92-9.85,1-3.15,3.81-4.93,5.46-7.58,1.29,0,2.62.25,3.57-1.1,2.85-4,3.06-15.46.12-19.59-.75-1.06-.88-3.4-2.85-2.75-1.7.57-1.05,2.55-1.2,4l-4.78,5.47a13.92,13.92,0,0,1-.1-3.46c1.51-6.91,6.47-13.21,3.63-20.89-.06-.17.28-.6.54-.74,5.72-3.11,7.87-13,17.37-9.08a2.39,2.39,0,0,0,3.26-2.19c.17-2-1.49-1.8-2.79-1.87s-2.8.11-2.92-1.84c-.09-1.45.5-2.28,1.79-3.17a41.53,41.53,0,0,0,6.76-5.86c4.85-5.19,9.61-10.48,14.14-15.94.85-1,2.18-3.33.54-4.49-1.47-1.05-3.22.47-4.07,1.86-1.77,2.92-4.39,5-6.78,7.28-7.19,6.86-15.33,12.73-21.48,20.68-.74,1-1.7,2.5-3.15,2-1.64-.54-.72-2.31-.93-3.52s-.62-1.86-1.84-1.94l-.31-1.63c1-4.42-1.49-7.92-3.34-11.46-1.62-3.09-4.35-2.2-6.83-.9a38.79,38.79,0,0,0-14.69,13.74c-7,.37-14,2.3-21.09.68-2.22-.5-4.58.83-6,2.46-5.71,6.36-12.35,11.87-16.75,19.51-1.24,2.15-1.54,4.54-2.94,6.49q-1.63,4-3.29,8l-.91-.62c.08-2.47.7-5.44-2.18-6.53s-2.94,2.74-4.62,3.44c-4,1.65-5,6.16-9,9.33,1.07-6.13,4.23-10.51,2.8-15.67l.35-1.72c3-.36,1.87-3.16,2.51-4.74,3.75-9.26,10.83-15.72,17.58-22.64,4.59-4.69,9.95-9.29,10.72-16.62h0a7.2,7.2,0,0,0,5-1.51c6.89-4.53,14.8-4.47,18.75,3.71a31.09,31.09,0,0,0,3.83,5.77c2.85,3.54,6.33,3.87,9.87,1,5.64-4.56,7.52-11.9,12.47-17h0a5.74,5.74,0,0,0,2-.11c11.36-4.95,22.51-10.44,34.09-14.8,9.58-3.6,15.23-4.28,21.75,4,4.55,5.75,7,12.68,11.72,18.29,1.34,1.61.31,3.5-1.2,4.84a21.39,21.39,0,0,0-3,2.62,2.71,2.71,0,0,0-.07,2.32c.36.86,1.29.81,2.16.52,3.95-1.34,6.63-8,4.5-11.69s-5.48-7-6.63-11c-2.66-9.11-8.34-14-17.52-15.19.27-1.46,3-1.88,1.59-3.75-1.15-1.55-2.54-1-3.92,0-2.42,1.69-3.25-.25-4-2-.83-2-.61-3.34,2.09-2.84,1.36.25,1.45-.79,1-1.45-1.94-2.67.46-1.81,1.41-1.68a8.05,8.05,0,0,1,2.65,1.19c4,2.35,7.64,7.79,12.62,1.31.48-.62,1.45-.36,2.3,0,5.88,2.23,12.43.11,17.13-4.14,3.37-3,4.93-7.77,9.67-9.57,2.77-1.05,6.23-2.55,3.68-6.88-.75-1.27.76-1.77,1.3-2.2,1.82-1.43,3.75-3.29,5.86-3.64,7.5-1.26,10.16-8.56,15.84-12,.79-1.52,1.37-3.2,3-4.1a1.63,1.63,0,0,0,2-1.78c6.64-7.47,12.87-15.28,19.22-23,9.35-11.33,16.33-24,23.13-36.93,3.38-6.4,4.78-13,5.79-20,.77-5.36,3.07-10.37,3.46-15.89.25-3.46-1-4.6-3.81-3.45-4,1.66-7.82,3.9-10,8-2.69.9-5.55,1.62-5.74,5.25-2.11,1.36-2.34,3.5-2.39,5.72-1.61.64-2.84,1.83-4.61,2.38-2.46.78-4.45,2.7-4,5.86a1.12,1.12,0,0,1,0,.86c-2.57.4-2.06,2.36-2.05,4.06l-1.1.88c-1.95.21-3.65.74-3.94,3.07a.36.36,0,0,1-.46.34,28.36,28.36,0,0,0-3.82-2.08c-4.48-1.62-5.55,2.06-7,4.84-1.32,2.47.52,2.72,2.31,2.84-.05,2.79-2.23,3.93-4.17,5.12a5.48,5.48,0,0,0-2.87,5.86c.36,2.41,2.46,2.83,4.48,3.15a5.14,5.14,0,0,1,0,3.76c-1.44.64-1.59,1.35-.14,2.17,0,.48,0,.95.08,1.42a5.31,5.31,0,0,0-.25,3.7c-1,4.21-5.32,5.78-7.71,8.95-1.12,1.49-3.23,2.88-4.67,4.6a12.45,12.45,0,0,1-8.35,4.48c-5.2.77-9.94,3.7-15.28,4.69-2.14.4-3.74.84-5.36-.81-2-2.06-4.9-1.77-7.38-2.44-2.22-.59-4.19-2.56-5.85-2.65-6.12-.31-11.2-6.65-17.4-3.69a12.77,12.77,0,0,1-10.91.2c-3.15-1.27-5.83-3.76-8.64-5.83a13.07,13.07,0,0,0-11.19-2.58c-3.39.8-4.75,3.25-4.71,6.65.06,6.61,0,6.61-6.56,6,0-.58.12-1.27-.76-1.16-.17,0-.25.72-.38,1.11l-10-.12c-9.19-1.89-13.63-1.1-18.1,4.72L100.58,412c-1.37,0-1.77.71-1.63,1.94l-1.68,2c-1.09,0-1.58.59-1.44,1.68l-2.64,4.32A1.45,1.45,0,0,0,92,424l-.36,1c-3.51,1.36-3,4.58-3.42,7.37l-1,3.58c-2.78,1.07-.41,4-2.23,5.83A37,37,0,0,0,80,437.82c-3.42-1.91-5.63-3.86-1.89-7.47l.16-3.35C79.3,426.43,79.32,425.81,78.4,425.14Zm27.93-86.42-.14.29.18-.27c-.72,2.34-.35,4.93-1.76,7.12-.54.83-.89,1.88,0,2.71a2,2,0,0,0,3.07-.34c2.95-3.65,6.63-6.41,10.34-9.16l1.13-.93c3.12-.9,4.28-2.85,3.2-6l-.1-4.11c.73-3-.4-4.94-3.3-5.91-1.08-.63-1.2-2.09-2.71-2.53-6.58-1.9-14.92,3.56-15.61,10.4-3.67,2.49-4.64,7.39-2,7.34C101.45,337.29,103.66,339.05,106.33,338.72ZM309,164.09c2.1.11,3.71,1.33,3.82,3.24.14,2.63,2.38,3.9,3.12,6.07s2.24,1.78,2.59.18c.82-3.69,1.87-8.28-.25-11.1-4.05-5.4-7.67-11.73-15.05-13.71-1.6-.43-3.24-2.74-4.67-.43-1.12,1.8.56,3.34,1.91,4.57.48.44,1.15.68,1.61,1.13a1.4,1.4,0,0,1,0,2.17,1.25,1.25,0,0,1-2.09-.14,16.13,16.13,0,0,0-1.92-2.26c-1.07-.87-2-3.14-3.44-2s.42,2.54,1.08,3.75c2.92,5.35,8.8,7.56,12.83,12.57.16-1.72.26-2.84.37-4Zm206.9,112c-.33-1.72,2.41-3.73-.55-5.21-2.74-1.37-2.82,1.57-4.05,2.52-3.91,3-7.54,6.15-12.77,7.14-4.17.79-8.3.18-12.39.78-1.06.16-2.56.37-2.67,1.8s1.26,1.74,2.43,1.92a29.14,29.14,0,0,0,15.45-2c5-2,9.16-5.81,14.58-7-3.47,6.23-8.39,10.81-15.24,13.06-7.23,2.38-14.41,5.51-23,1.76a18.86,18.86,0,0,0,1.27,2.64c3.19,4.09,7.24,3.56,11.77,2.71,7-1.31,14.19-2.8,19.9-6.88,4.42-3.17,9.16-5.9,13.54-9.14s6.54-8.87,12.44-10c.61-.12,1-1.61,1.39-2.52a33.66,33.66,0,0,1,2.47-4.17c2.95-5.26,7.18-10.23,7.24-16.52.06-6.48,2.74-11.38,6.71-16.08A105.85,105.85,0,0,0,561,221.6c.64-1,1.3-2.26,0-3.07s-2.24.23-3,1.14c-1.37,1.64-2,3.68-3.36,5.44-3.43,4.62-7.72,8.47-10.43,13.83a209.32,209.32,0,0,1-15.51,26.18C525.53,269.61,522.22,274.9,515.88,276.11Zm-70.3-118c-3.68-1.69-3.47-3.72-3.75-5.71-1.12-8,.06-16.11-1.94-24-.55-2.14-1.25-4.17-3.62-3.93-2.8.28-2.42,2.76-2.1,4.73,1,6.26.22,12.58,1.46,18.95,1,5.09,3,10.49,5.84,13.05,4,3.63,6.4,8.13,10,11.84,3.08,3.21,10.72,5.45,13.87,3.76,4.39-2.34,7.48-6.26,10.92-9.72a2,2,0,0,0,.3-2.33,2.09,2.09,0,0,0-2.37-1.42,14.71,14.71,0,0,0-4.17,1.54c-7.14,4.37-7.07,4.33-13.87-.49-1.9-1.34-2.62-3-3.56-5.05-2.25-4.83-3.53-10-5.49-14.88-.47-1.19-.48-3-2.25-2.78-2,.23-1.6,2.13-1.81,3.56C442.38,149.36,443.71,153.23,445.58,158.11ZM340.5,56.22a60.27,60.27,0,0,0-1.29,23.17c2.51,18.34,5.57,36.59,5.7,55.16a16.66,16.66,0,0,0,.58,2.91c1.47,7.8,3.24,15.55,4.33,23.4,1.45,10.37,2.37,20.81,3.52,31.23a14.69,14.69,0,0,0,.63-4.89c.39-11.3-1.05-22.48-1.77-33.72-.88-13.88-.81-27.8-3.17-41.57-.6-3.51-2.66-6.47-3.08-9.93C344.09,86.73,342.31,71.47,340.5,56.22ZM243.14,259.79c-.6-8.77,1.22-17.31-6.89-22.81-.2-.14-.2-.61-.25-.94-.26-1.78-.25-4.23-2.91-3.45-2,.59-1.45,3.11-1,4.39,2.45,6.61,2.71,13.58,3.4,20.43.9,8.85,4.4,17.89-1,26.55-.19.32.05,1,.18,1.41,2.47,8.18-.6,16.38,0,24.59.18,2.26-2.08,4.48-1.66,7.13.14.88.39,1.71,1.38,1.75.69,0,1.12-.51,1.3-1.25,1.71-7.2,4.7-14.36,4.88-21.59C241,283.56,242.76,271.26,243.14,259.79Zm311.69-54.65c-.08-1.31.14-2.56-1.2-2.73-2-.25-2.3,1.35-2.86,2.78-2.34,6-3.15,12.81-9.7,16.34-.81.43-.92,2.05-1.51,3-6.6,10.72-9.87,23.57-20.36,31.82-1.2.94-3.18,2.32-1.76,4s3.1-.06,4.37-.9c6.37-4.24,9.85-10.91,14.12-16.94s6-13.16,10.54-19C550.74,218.09,553,211.47,554.83,205.14ZM245,222.81c-4.59-4.57-4.84-9.73-7.46-13.62-4.71-7-6.12-8.06-10.55-8.17,10.92,14.86,16.41,31.63,19.1,49.53a21.45,21.45,0,0,0,.56-11.67,10.81,10.81,0,0,1,.92-8,16.53,16.53,0,0,0,1-11.21,39.28,39.28,0,0,0-9-17.66c-.83-.94-.59-3.77-2.75-2.34-1.81,1.2.3,2.44.93,3.67C240.63,209.14,245,214.39,245,222.81Zm64.31,168.76a35,35,0,0,0,3.84-5.47c3.17-4.65,4-10.69,7.88-14.68,7.15-7.39,7.93-17.7,12.92-26,.58-1,.73-3.05-.49-3.68-2-1-2.44,1.2-3.09,2.33a54.37,54.37,0,0,1-15.14,16.84c-1.89,1.39-5.37,2.78-3.76,5.44s3.44-1.43,5.49-1.4h.77C316.44,373.9,308.33,380.72,309.26,391.57Zm122,1.56c-2.79-.86-4.57,2.12-7.38,2.11-2.51,0-5.05,2-4.59,4.26.63,3,3.44,1.11,5.39.77a17.22,17.22,0,0,1,2.48-.25c7.72-.3,10.59,1.58,12.82,8.61.46,1.47,1.48,2.06,2.62,2.77,3.71,2.31,8,1.72,12,2.47,2.58.49,2.71-1.88,1.18-3.15-3-2.51-4.54-6.42-8.63-8-3.31-1.3-3.12-8.15-9.08-6.13-.47.16-1.52-1.15-2.19-1.88A5.3,5.3,0,0,0,431.29,393.13ZM470.87,243a42.82,42.82,0,0,0,18.48-7.68c7.21-5.23,11.09-12.39,13.6-20.64.45-1.44,1.64-3.08.21-4-2-1.29-2.74.9-3.66,2.21-2.46,3.47-3.39,7.81-6.63,10.9-6.32,6-12.85,11.63-21.61,13.86-1.53.39-3.55,1.1-3,3.26A2.8,2.8,0,0,0,470.87,243Zm-102.53-74.2c-.85,2.27-.25,4.73-.36,7.11,0,.85.26,2,1.22,1.78,4.81-.93,3.67,2.65,3.74,5,.17,5.8.09,11.61.13,17.41,0,1,.22,2.05,1.29,2.46a1.74,1.74,0,0,0,1.18-.42c-.59-3.56,2.5-5.7,3.29-8.62,1.08-4,1.31-8.12,2-12.18,1.17-6.69-2.75-10.77-7.33-14.51-1.25-1-2.19-.46-2.46,1-.19,1.12-.19,2.28-.27,3.45C369.34,170.89,370.42,168.79,368.34,168.75ZM341.46,337.91c1,0,1.46-.24,2.39-1.76,5.33-8.76,13.14-15.74,16.76-25.84,3.45-9.64,9.21-18.46,9.86-29.08.06-1,.82-2.19-.36-2.59-1.48-.5-1.86.9-2.2,2-1,3.46-2,6.94-3.13,10.36-4.82,14.24-10.17,28.18-21.14,39.12A18.72,18.72,0,0,0,340.2,335C339.63,336.13,339.62,337.7,341.46,337.91ZM309.17,146.8c.91-1,.4-1.93.27-2.9-.86-6.28-2.07-13.17.11-18.75,2.45-6.27-.36-11.32-.54-16.89,0-1-.47-2.07-1.85-1.75-1,.23-1,1.16-1.12,2a104.14,104.14,0,0,0-.73,25.36c.5,4.47.14,6.73-5.45,6.78Zm33.22,12.06c1.15-3,2.81-5,2.54-7.64-1-9.51-1.75-19.05-3.13-28.5-.53-3.64-.56-7.24-.86-10.86a2.34,2.34,0,0,0-1.55-2.3c-.82-.25-1.26.35-1.3,1-.3,5.1-1.67,10.3.35,15.25,1.11,2.72.92,5.52,1.52,8.21C341.72,142,339.78,150.31,342.39,158.86ZM480.63,275.27c2.45.2,4.59-1,6.87-1.33a1.39,1.39,0,0,0,1.08-1.9c-.28-1-1.19-2-2.18-1.41-4.66,2.91-8.51,1.21-12.85-1.12-1.95-1.05-3.74-2.69-6-3.19-7-1.58-12.2-6.21-17.54-10.58-1.09-.89-1.7-3.85-3.57-1.85s.82,2.94,2,4.22c7.48,8.2,18,11.2,27.42,16C477.25,274.87,479,274.91,480.63,275.27ZM417,233.45c.49,6.4-1.3,12.49-2.52,18.64-.19.92-.91,2,.52,2.45,1,.28,1.47-.65,1.7-1.44,2.36-8.09,5.14-16.11,4-24.77-.62-4.91-1.21-9.82-1.82-14.73-.15-1.24.37-3.15-1.48-3.14s-1.49,1.92-1.43,3.15C416.25,220.23,416.63,226.84,417,233.45ZM366.88,31.89c-5.69,8.56-.87,42.44,6.74,48.83C368.76,64.62,367,49,366.88,31.89Zm4.54,9-2.37.42c2.9,14.51,3.62,29.47,10.06,43.25C378.48,69.59,374.45,55.32,371.42,40.85ZM168.9,332.35c.25,2.39.25,4.72,2.73,2.47,1.75-1.6,2.66-1,4.05.31,2.78,2.68,5,3.71,6.74-1.37,1.19-3.42,1.8-8.34,7.59-7.92a1.88,1.88,0,0,0,1.71-2.54c-.52-1.66-3-2.61-3.45-2-1.69,2.29-6.15,1.56-6,5.9a5.85,5.85,0,0,1-2.41,4.5c-2,1.11-1.54-2-2.86-2.58s-2.25-2.86-4.26-1.34C171,329.13,168.36,330,168.9,332.35ZM504.33,231.51c-4-.09-4.64,3.92-7.12,5.56-6.36,4.21-13,7.61-20.53,9.32-1.06.24-3.7.2-3.1,2.27s2.85,1.56,4.38,1.12c8-2.3,15.77-5.24,22.28-10.69C502.52,237.18,504.74,235.17,504.33,231.51Zm-189-99.85c-.81,3.43,1.42,5.13,2.86,7,1,1.27,1.51,3.9,3.86,3.24s3.39-3.1,3.77-5.43.13-4.93.91-7.38c.65-2,2.81-5.24.21-6.06-2.22-.71-4.2,2.48-5.05,5.12-.26.79-.59,1.56-.79,2.36C320,135,319.42,135.13,315.32,131.66ZM469.74,325.19c1.49-.25,3.71.65,4.15-2.11.39-2.49-1.07-3.51-2.82-5.1-3.21-2.9-8.87-.56-10.83-5.51-.08-.21-.91-.31-1.31-.19-.72.22-.85.9-.84,1.61C458.22,319.15,464.26,325.1,469.74,325.19ZM466.38,186.4c3.75,1.19,6.22-.4,8.43-2.74,1.12-1.19,2-2.55,3.16-3.74,4.32-4.36,6-10.34,8.72-15.66a2.08,2.08,0,0,0-.69-2.68c-1.29-.73-2.08.4-3,1-2.46,1.67-1.59,4.57-2.64,6.75C477.07,176.12,474.58,183.45,466.38,186.4Zm25,67.41c-2.27-1.4-4.23-.31-6.08.66-7.24,3.78-14.66,5.63-22.73,2.81-1.11-.38-3-.76-3.35,1-.4,2,1.6,2.27,2.94,2.64a25.11,25.11,0,0,0,12.69-.12C480.55,259.4,487.36,259.79,491.36,253.81ZM371.92,144c.48-3.27-.59-6.2-1.95-9.08-.48-1-.58-2.59-2.13-2.12s-1,2-.86,3c.95,7,2,14,3.09,21,.22,1.39.66,3.41,2.51,3.1s1.31-2.41,1.29-3.8C373.81,152,370.91,148.3,371.92,144Zm-60,38.46c-.21-.44-.3-1.05-.65-1.29-5.36-3.7-11-7-15.74-11.57-.74-.71-1.89-.35-2.69.43a1.58,1.58,0,0,0,.22,2.57c5,4.05,9.87,8.19,15,12C310,186,311.5,184.77,311.93,182.43Zm-39.31,40.72c-1.66.28-1.81,1.41-1.23,2.56a57.21,57.21,0,0,0,13,16.37c.58.52,1.34,1.2,2.12.33s.15-1.47-.34-2.18c-3.26-4.71-6.42-9.49-9.77-14.12C275.48,224.84,274.42,223.42,272.62,223.15ZM461,183.07c2.82.85,5.47-.59,8.12-2,.89-.47,1.84-1.17,1.28-2.3-.42-.84-1.39-.46-2.22-.32-5,.85-9.95,2.07-14.95-.06-1-.43-2.47-.65-2.94.83-.52,1.64.64,2.42,2.06,2.75C455.05,182.6,457.74,183.53,461,183.07Zm36.09,10.69c7.16-5.82,9.84-17,5.17-21.16C501.92,179.91,497.69,186.05,497.06,193.76Zm-218.29,1.91c-1.36-.18-2.06.54-1.63,2,1.58,5.34,3.54,10.51,8.38,13.92.89.63,1.58,2.17,2.81.87,1.05-1.1.08-2.13-.7-3-3.05-3.5-6-7-7.14-11.74C280.29,196.85,279.26,196.22,278.77,195.67Zm171.71-9.31c3.2,7.35,5.73,9.23,11.49,8.75,1.42-.12,3.47.17,3.32-1.89-.13-1.8-2.1-.95-3.28-1.12a16.34,16.34,0,0,1-6.66-3C453.92,188.1,453.2,186,450.48,186.36ZM364,237.78c.21,1-.54,2.52,1.11,2.81,1.11.19,1.72-.93,2-1.87a41.61,41.61,0,0,0,1.8-10.68,2.13,2.13,0,0,0-1.42-2.39c-1.75-.37-1.71,1.34-1.9,2.29C364.91,231.17,364.49,234.45,364,237.78Zm54-67.15c-1.93,5.07.6,9.84.11,14.76a1.28,1.28,0,0,0,1.55,1.45,1.31,1.31,0,0,0,1.2-1.34C421.1,180.31,420.57,175.27,418,170.63Zm-136.23,139c.11-1.51-5.46-7.44-6.81-7.4a2.48,2.48,0,0,0-2.64,1.84,1.91,1.91,0,0,0,1.19,2.45c2.2.63,3.67,2.16,5.29,3.58C279.87,311.11,281.13,311.52,281.73,309.66ZM437.21,241.5a1.6,1.6,0,0,0-1,2.59,58.87,58.87,0,0,0,4.69,6.22c.81.95,1.84.48,2.61-.26.53-.52,2-1,1.45-1.59A29.45,29.45,0,0,0,437.21,241.5Zm-134.33-35a4.44,4.44,0,0,0-1.17.79,3,3,0,0,0,.13,4.05c1.34,1.54,1.74,4.05,4.29,4.35.36,0,.91-.39,1.17-.74a2.23,2.23,0,0,0-.35-3.11C305.33,210.26,305.51,207.36,302.88,206.47Zm192.67,45.46a41.93,41.93,0,0,1,4.09-3.64c1.47-1,3-2,1.74-3.85-1.51-2.2-3.17-.47-4.62.43-1.86,1.16-1.93,3.32-2.58,5.13C493.87,250.86,494.22,251.58,495.55,251.93ZM400.83,434.21c-.28-1.5-.35-3.68-2-3.54-2.13.17-3.9,2.17-4.39,4.14s1.87,2.64,3.31,2.9C400.36,438.18,400.28,435.78,400.83,434.21Zm-8.9-190c-1.28,2.9-4.59,4.57-4,7.93.25,1.43-.07,3.34,1.83,3.5s2.13-1.67,2.15-3.17C392,249.68,391.93,246.93,391.93,244.17Zm-224,49.68c1.31-4.14,2.38-7.09,3.16-10.12a2.6,2.6,0,0,0-1.59-3.28,1.79,1.79,0,0,0-2.43,1.77C166.87,285.69,166.32,289.24,167.9,293.85Zm177-52.29c-.21-1.43.23-3.52-1.71-3.07-3.76.88-1.68,4.86-3.13,7.1-.5.78.11,2.49,1.19,2.14C344.26,246.78,344.35,243.85,345,241.56ZM232.54,530.77c1.24-1.65,3.17-3.29,3.79-5.33s-1.74-1.36-2.87-1.41c-2.57-.13-3.52,1.4-3.42,3.79C230.1,529.24,230.42,530.46,232.54,530.77ZM386.05,162.82c-.67-1.74,1-4.89-1.42-5S383,161,383,162.75s-1.11,5.49,1,5.55C387.22,168.37,385.34,164.74,386.05,162.82Zm-89.63,70.91c-.94-.3-2.25-.8-2.27.71,0,2.86,2.4,3.75,4.56,4.47a2.12,2.12,0,0,0,3-2.18C301.57,233.18,298.31,234.55,296.42,233.73Zm188.72,103c1.63-.95,3.34-2,3.49-4.2a1.92,1.92,0,0,0-2.16-2.12,3.59,3.59,0,0,0-3.44,4A2.13,2.13,0,0,0,485.14,336.68ZM159.64,252.2c-4.91,5.69-1.26,7.94,1.68,11C162.92,259.07,159.61,256.64,159.64,252.2Zm76.1,184.51c0-.7-.5-1.69-1-1.37a18.38,18.38,0,0,0-6.49,5.71,1,1,0,0,0,.68,1.56C230,443,235.79,438,235.74,436.71Zm-17.35,32.47c-1.94,0-2.51.95-2.3,2.23.42,2.6,2.59,3.12,4.7,3.54.82.16,2.1-.31,1.73-1.1A9.24,9.24,0,0,0,218.39,469.18ZM83.33,331.32c.26,1.67.45,2.91.65,4.15.17,1.06-.52,2.47.87,3,1.12.46,1.76-.59,2.39-1.29a2.9,2.9,0,0,0,.39-3.64C86.83,332.26,85.51,331.63,83.33,331.32ZM244.62,507.06c-.36-1.59-1.53-2-2.93-2-1.14,0-2.52,0-2.4,1.63a2.82,2.82,0,0,0,2.77,2.86C243.44,509.58,244.29,508.45,244.62,507.06ZM155.91,325.68c-3.33-1-5.45-.46-6.63,2.75C152.28,329.6,154.31,329,155.91,325.68ZM319.08,150.09c-.07-1.31.11-2.88-1.84-2.8-1.57.07-2.24,1.26-2.34,2.69s.39,2.76,2,2.83S318.89,151.43,319.08,150.09Zm-30.86,19a2.57,2.57,0,0,0,2.42-2.63c.19-1.62-.93-2.37-2.49-2.36a1.91,1.91,0,0,0-2.15,2.13A2.56,2.56,0,0,0,288.22,169.08ZM169.89,312.36c1.14-2.57,1.69-5.15-.2-8.43C168.75,307.27,168.82,309.81,169.89,312.36Zm355.94,112c-1,.2-1.61.75-1.59,1.66a1.91,1.91,0,0,0,2.31,1.95,1.35,1.35,0,0,0,1.22-1.78A2,2,0,0,0,525.83,424.34Zm31.39-173.67c1.67-.76,3.19-.9,3.17-2.63,0-.25-.72-.75-1-.7C557.82,247.6,557.48,248.82,557.22,250.67Zm8.24-7.11c0-1.16-.67-1.24-1.31-1.2s-1,.63-1,1.3.53,1.17,1.19.93C564.8,244.4,565.17,243.84,565.46,243.56Zm-195.4,32.56c1.25-2.29,1.17-3.68,0-6.35ZM532,447.4c-.38-.34-.7-.86-1-.84a1.21,1.21,0,0,0-.82.86c-.1.64.14,1.35,1,1.14C531.45,448.48,531.63,447.88,532,447.4ZM338.89,103.77c-.49.41-.84.57-.83.72a14.92,14.92,0,0,0,.26,1.74c.19-.14.52-.27.54-.44A18.11,18.11,0,0,0,338.89,103.77Zm73.57,311c-.25-.11-.57-.36-.75-.28s-.24.47-.35.72c.26.11.57.36.75.29S412.35,415.05,412.46,414.79Z"/><path class="cls-2" d="M410,84.72c3.13,2.55,2.79,6.4,1.46,9-3.29,6.31-.71,12.66-1.28,18.93-.15,1.75,1.66,1.85,2.78,2.36a1.9,1.9,0,0,0,2.31-.35c1-1.19.29-2.22-.55-3.06-2.81-2.75-1.5-6.64-2.76-9.83a1.74,1.74,0,0,1,.78-2.17,2.13,2.13,0,0,1,2.66.74c3.23,3.35,6.73,6.61,6.38,11.86-.26,3.93,2.41,7.26,2.15,11.19a1.58,1.58,0,0,0,1.48,1.72c5.66.31,4.41,4.26,4,7.66-.44,3.9-1.66,7.74-.69,11.73a2.66,2.66,0,0,1,0,1.48c-3.21,8.31.18,17-1.63,25.5-.88,4.11,1.59,8.3,2.3,12.51,1.7,10.06,6.68,18.83,12.39,27.17,3.07,4.5,7.66,6.78,12.73,7.73,4.12.77,5.31,2.27,2.87,5.83a6.22,6.22,0,0,0,.74.34c2.35.84,5.48-1.26,7.17,1.87.17.31-.46,1.52-.8,1.57-3.33.39-6.86,2.78-9.95.25a6.57,6.57,0,0,0-6-1.74c-4.91.82-8.23-2.22-10.21-6.25-1.64-3.32-4.07-5.74-6.72-8.87,1,9.87,8.3,17.59,28.7,37.17-4.25.17-7.36-.91-10.21-4-2.24-2.42-3.68-6.77-9.39-5.06,2.13-2.59,2.68-4.58.28-6.35-3.62-2.67-5.73-6.75-9.29-9.63-3.27-2.65-2-7.69-3.75-11.41-.84-1.74-.93-3.82-2.66-5.06-2.23.4-.56,2.78-2.08,3.68a4.44,4.44,0,0,1-.39-1.21c0-1.66-.55-4,.32-4.87,5.45-5.7,1.51-11.74.84-17.52-.73-6.27-.37-12.62-1-18.72-.95-8.95,3.91-16.93,2.67-25.9-4.09,6.51-3,14.66-7.67,20.77-1.62-1.12-1.2-2.55-.83-3.7a47.26,47.26,0,0,0,1.57-20.23c-.68-5.93-2.83-11.69-4.5-17.48a3.06,3.06,0,0,0-2.15-1.79c-1.6-.11-1.25,1.65-1.73,2.6-1.2,2.4,1.79,4.73.12,7.22-1.39.89-1.78-4.54-3.84-.68-.34.66-1.61.64-2.19-.1a2.06,2.06,0,0,1-.32-1.81c3-4.88,1.55-8.86-.47-14.06-1.66-4.26-3.52-9.64-2.64-14.92.39-2.33-.37-3.94-3.15-3.69C401,90.6,405.53,87.64,410,84.72ZM425,130.15c.4-.63.81-1,.82-1.37s-.43-.67-.67-1c-.31.35-.79.66-.88,1.05S424.62,129.54,425,130.15Z"/><path class="cls-1" d="M405.1,498.33c-3.62,7.54-7.36,15-10.78,22.65-1.26,2.82-1.76,6-2.61,9-3.64,3.56-4.47,7.85-3.31,12.67-3.09,5.61-6.21,11.21-9.22,16.87-.5,1-.82,1.77-2.05,1.65-1.49-.88-3-1.71-.63-3.36a6.44,6.44,0,0,0,2.53-4.4c.15-.42.3-.84.44-1.26,3.59-3.54,2.88-8.64,4.59-12.86a2.33,2.33,0,0,0-1.8-3c-1.89-.3-4.27-1.53-5.41,1.39-1.89.09-2.31,1.76-2.87,3-1.06,2.33-2.9,2.59-5,2.5l1.08-3.86,1.81-2c2.47-.2,2.41-1.74,1.87-3.54a.39.39,0,0,1,.32-.59,23.71,23.71,0,0,0,2.22-.86c5.78-3.06,6.78-9.4,9.64-14.41,1.07-1.87,3.79-3.1,2.86-5.95v0c3.46.32,4.2-1.57,3.66-4.51a.34.34,0,0,1,.31-.42c4-1.83,5.66-6.12,6.78-9.29A97.61,97.61,0,0,0,404.86,464c-.26-1.77,1-3.06,1.43-4.62,1.44-5.32,6.37-9.68,4.4-15.95,1.14-1,.73-4.25,2.37-3.43,3.15,1.59,5.28-.64,7.86-.89,1,.34.73,1.29.93,2a2.53,2.53,0,0,0-2.5.64c2.95,1.35,4.77,4.58,8.48,4.39l2,.61a4.62,4.62,0,0,0,4,3.43l.09.06c-.23,1.39.77,2.14,1.61,2.89,4.31,3.86,6.69,9,9.15,14,.59,1.22,2.48,3.27.47,4.35s-5.44,1.55-6.51-.2c-4-6.45-10.48-10.66-14.34-16.95-1.83-3-2.52-1.23-3.94-.4-1.62,1-1.42,2.53-1.34,4,.41,8.09-.92,16.24.92,24.3.42,1.84.74,4.67-1.46,5.28s-4,3.64-6.64,1.48c-4.39-3.62-5.4-.91-6.36,3A17.26,17.26,0,0,0,405.1,498.33Zm6.72-30.59c-.13,4.57-3.53,8.39-2.83,13.1.13.85.22,1.79,1.27,1.7a1.89,1.89,0,0,0,1.3-1.27C411.82,476.79,414,472.39,411.82,467.74Z"/><path class="cls-2" d="M570.55,203.2C560.17,197.5,549.13,193.08,539,187c-2.73-1.65-3.21,0-3.09,2.24a60.9,60.9,0,0,1-3,23.53c-5,14.41-9.57,29-20.33,40.43-1.43,1.53-2.12,3.36-3.07,5-4,6.89-11.07,4.47-16.8,5.87-3,.72-6.29.16-9.45.1-1.08,0-2.7.42-2.82-1.2-.11-1.36,1.33-1.7,2.49-2,5.65-1.37,11.15-2.91,16.09-6.32,3-2.1,4.65-5,6.57-7.81,5.84-8.72,10.67-17.88,13.46-28.08a14.34,14.34,0,0,1,3-5.07c5.51-6.53,7.68-14.69,10.43-22.41,1.35-3.81-.58-8.14-5.36-10.72-.54,5,.13,9.94-2.3,14.42-3,5.5-5.53,11.22-8.37,16.79-.49,1-1.34,2.39-2.61,1.81-1.61-.74-1-2.42-.31-3.46,6.34-9.92,5.9-21.52,8.18-32.44a3.13,3.13,0,0,0-.58-2.8Q511.57,163.13,502,151.4c-1-1.21-2-2-3-.12-.49.84.21,2.88-1.72,2.23a3.35,3.35,0,0,1-1.92-3.72,2.74,2.74,0,0,1,2.5-2.68c1.72-.18,3.72.84,5.09-1.06,4.62-.13,4.05,4.57,5.94,6.84,5.4,6.51,11.12,12.72,16.76,19,1.14,1.27,3.36.42,4.07,2.3-1,.46-2.24-.5-3.13.85,1.36,1.48,2.54,3.16,5.08,3.45-.34-1.6-.59-2.82-.85-4,6.9,13.59,21.49,16.36,33,23.44C566.27,199.41,569.5,199.92,570.55,203.2Z"/><path class="cls-2" d="M205,199.11c-.57,4.49-4.21,3.88-7.9,4,3,5.58,5.76,10.54,4.93,16.71-.64,4.73-2.79,9.18-2.33,14.13a2.59,2.59,0,0,1-3,2.64c-1.59-.28-1.65-1.88-1.65-3.23,0-3.33,0-6.66,0-10,0-5.73-5.35-11.56-11.09-12-1.21-.1-2.5,0-3.2,1-3.18,4.58-7.12,8.79-7.61,14.76A73.54,73.54,0,0,1,169.79,244a11.46,11.46,0,0,0,0,7.79c.55,1.45,2.41,3.23.09,4.06-2.13.76-4.27-.66-4.91-3-.37-1.38-.07-2.94-.07-4.9-1.4,1.71,0,3.67-1.89,5-2.08-2.32-2-5.5-2-8.06a7.24,7.24,0,0,0-4.36-7c0-2.31-.9-5.88.21-6.7,3.81-2.81,2.45-5.9,1.88-9.26-.66-3.91.87-7.9-.28-11.85a10.11,10.11,0,0,1-.09-2.47c0-1.63.43-3.3,2.07-3.54,2.12-.32,2.07,1.61,2.19,3.09.07.84.18,1.64,1.25,2,1.9-1.73-.66-7.17,4.26-6.1,3.62.78,5-3,8.07-2.79,3.28.26,6.81-.43,9.83.54C192.73,202.92,198.75,200.58,205,199.11Zm-26.9,7.58c-.07-.88.2-2.39-1.38-2.41-2.14,0-2.35,1.91-2.62,3.48-.21,1.19,0,2.44,1.64,2.3C177.54,209.9,178,208.47,178.07,206.69Zm-18.86,28.95-.28-.7c-.07.11-.21.23-.19.32a7.12,7.12,0,0,0,.28.72C159.09,235.87,159.15,235.75,159.21,235.64Z"/><path class="cls-2" d="M241,424.2c-5.68,3.43-8.34,10.73-15.84,12-2.11.35-4,2.21-5.86,3.64-.54.43-2.05.93-1.3,2.2,2.55,4.33-.91,5.83-3.68,6.88-4.74,1.8-6.3,6.53-9.67,9.57-4.7,4.25-11.25,6.37-17.13,4.14-.85-.33-1.82-.59-2.3,0-5,6.48-8.62,1-12.62-1.31a8.05,8.05,0,0,0-2.65-1.19c-.95-.13-3.35-1-1.41,1.68.48.66.39,1.7-1,1.45-2.7-.5-2.92.87-2.09,2.84.72,1.73,1.55,3.67,4,2,1.38-1,2.77-1.54,3.92,0,1.38,1.87-1.32,2.29-1.59,3.75,9.18,1.21,14.86,6.08,17.52,15.19,1.15,4,4.49,7.26,6.63,11s-.55,10.35-4.5,11.69c-.87.29-1.8.34-2.16-.52a2.71,2.71,0,0,1,.07-2.32,21.39,21.39,0,0,1,3-2.62c1.51-1.34,2.54-3.23,1.2-4.84-4.68-5.61-7.17-12.54-11.72-18.29-6.52-8.25-12.17-7.57-21.75-4C148.48,481.51,137.33,487,126,492a5.74,5.74,0,0,1-2,.11c2.17-5.11,7.68-4.38,11.58-6.35,6.46-3.26,12.93-6.62,19.9-8.86,3.3-1.05,3.1-4.89,3.48-7.54.23-1.6.07-2.66,1.69-3.31,3.7-1.48,2.75-4.06.55-5.52s-4.28-3.74-7.49-3.12c-4.92,1-8.68-2.34-12.19-4.58-2.31-1.48-4-2.89-6.83-2.67-.9.07-2.28,0-2.23-1.32s1.28-1.81,2.52-1.91c.29,0,.6.2.91.28,7.28,2,7.28,2,10.72-5.14a17.84,17.84,0,0,0,9.41,5.79c4.28,1.18,5.8,5.55,9.57,7.55,4.67,2.49,10.24,3.59,13.88,7.94a1.69,1.69,0,0,0,2.24.22c12.34-6.28,24.12-13.35,34.21-23,2.85-2.72,6-5.26,9.93-6.42,2.82-.82,4.74-3,6.76-5C235,426.79,237.58,424.74,241,424.2Z"/><path class="cls-1" d="M29.42,502.13l.4-1.93c6.32-5.71,8.51-14.05,13.3-20.74,3.44-.62,6-4.59,10.09-2.73a2.18,2.18,0,0,0,3.12-.39c3.44-3.48,8.11-5.07,12-7.9a20.23,20.23,0,0,0,8.79-15.94c.13-2.49,0-5,0-7.47,0-1.44-.58-3.29,1-4.08,2.09-1,2.09,1.54,3.13,2.34A12.22,12.22,0,0,1,85.71,450l-.14,4c-2.93,1.19.49,4.42-1.87,5.79-.16.23-.49.56-.43.68.35.66.68.14,1-.09,2.57,1.94,2.24,5.41,4.16,7.8,1,1.24-.71,1.5-1.85,1.87-4.14,1.37-8.73,1.92-11.64,5.78-6,4.63-11.86,9.26-18.89,12.68C52.53,490.19,48.2,493,45.44,497c-3.75,5.49-9.72,9-13.62,14.58a57.2,57.2,0,0,0-4.61,7.52c-.82,1.66-1.31,4.45-3.51,3.77-1.68-.52-1-3-.27-4.72C26.51,516.67,30.3,506.53,29.42,502.13Z"/><path class="cls-2" d="M193.36,704.91c-.35,5.46-4.33,9.18-6.94,13.41-5.46,8.86-9.39,18.56-15.66,27-1.95,2.63-4.64,2.89-6.78,4.57-13.69,10.71-31.74,9.26-43.5-3.37-1.32-1.42-2.21-3.06-4.55-3.48s-2.48-2.95-2.54-4.83c-.08-2.31,2.09-1.83,3.59-2.37,4.25-1.54,7.33-.68,11.41,1.8s10.15,5.17,14.64-.74c1.58,1.43,1,2.45.13,3.62-.7.93-1.16,2.16.05,3.08a2.84,2.84,0,0,0,3.24.42c6.56-3.43,14.73-4.8,17.17-13.47a2.67,2.67,0,0,1,3-1.9c1.65.42.8,2.05.79,3.34,0,2.2-2.66,5.29-.36,6.25s3.6-2.73,5.14-4.52c4.19-4.87,5.86-11,8.12-16.86a14.22,14.22,0,0,1,2.31-4.29,5.08,5.08,0,0,1-.75,5.1c-.67,1-1.32,2.3,0,3s1.79-.7,2.35-1.73,1.22-2.29,1.87-3.34C188.35,711.93,190,707.83,193.36,704.91ZM156,751.05c10.32-3,16.67-8.38,17.37-15.32-2,2.24-3.73,3.93-5.17,5.82-1.11,1.45-2.86,2.17-3.76,1-2.43-3.15-3-.35-3.47,1a17.43,17.43,0,0,1-5.07,7.38l-1.3.42c.1.12.25.36.28.35C155.3,751.51,155.67,751.27,156,751.05Zm-9.14,3.33c-9.56,1.29-15.87-6.61-24.16-8.88C129.51,752.07,136.66,757.6,146.9,754.38Zm33.27-30.86a3.93,3.93,0,0,0-1.43,4.31A4.22,4.22,0,0,0,180.17,723.52Z"/><path class="cls-2" d="M332,30.22c2,.25,2.92,1.15,2.64,3.34-2.15,16.86-.74,33.63,1.47,50.37a13.72,13.72,0,0,0,1.21,3.2c1.79,4.45.44,10.93-3.17,13.07-4,2.37-7.68.9-10.75-2.08s-6.22-6.26-7.54-10.66c2.64.14,4.14,1.79,5.14,4a16.44,16.44,0,0,0,5.08,6.06c1.8,1.41,3.92,3.14,6.31,1.72s4.15-4.07,3.48-7.09c-2.57-11.65-3.54-23.59-6.57-35.16-3.25-12.35-.55-24.26,2.72-36.23C335,10,344.36,6.2,352.17.61a5.14,5.14,0,0,1,3.36-.55c10.64,1.34,19.38,5.74,24.28,15.85.61,1.27.52,2.88.76,4.34-2.83-1.9-3.64-5.28-5.3-7.92-4.88-7.76-12.62-9.09-20.45-10.09-4-.52-6.44,3.58-9.72,5.35-8.75,4.73-12.22,13-13.22,22.53-1.43,4.72-1.59,9.53-1.69,14.34l1.82.1Z"/><path class="cls-1" d="M193.36,704.91c-3.34,2.92-5,7-7.27,10.68-.65,1-1.26,2.22-1.87,3.34s-.93,2.49-2.35,1.73-.64-2,0-3a5.08,5.08,0,0,0,.75-5.1c.09-.52.18-1,.28-1.55,2.27-.8,2-2.74,2.11-4.56.53-7.22-1-13.94-3.68-20.68-3.62-9.09-9.33-10.43-16.47-3.21-.91.94-1.9,1.83-2.72,2.84s0,3.21-2,2.73-.94-2.49-1-3.81c-.06-2.77,1.79-4.9,2.75-7.33,4.9-2.63,9.62-5.65,15.07-7.11,8.41.57,11.06,3.21,12.05,11.16.71,5.68,1.94,11.3,2.93,16.94.21,1.8-.93,4,1.55,5.11Z"/><path class="cls-2" d="M623.52,265.33c4.84-.78,5.42,2.94,6.48,6.15a5.33,5.33,0,0,0-2.7,6.1c4,12.84-1.8,23.11-7.65,33.52-3.6-1.52-.86-3.45-1-5.1-.19-2.31,1.78-5.8-1-6.67-2.95-.94-4,2.2-4.79,4.9-.59,2.08-1.62,4.38-5.21,3.74,3.32-4.56,2.12-10.06,4.77-14.64,1.5-2.59-1-2.43-3-2.24-1.51.14-3.64,2.17-4.59-.52-.7-2,1.35-2.88,2.7-3.68,3.81-2.26,4.73-6.79,7.75-9.64a5.27,5.27,0,0,1,.38,6c-1.78,3-.93,5.32,1.33,7.91,1.34-2.36,2.09-5.62,4.68-5.42,2.26.18,2.89,3.29,3.74,5.76,2.69-7.47,2.52-7.84-5.57-12.54,4.78-1.3,1.49-4.45,2-6.82,1.31.15,2.67.38,2.36-1.71C624,268.71,623.75,267,623.52,265.33Z"/><path class="cls-2" d="M132.11,519c1.22.08,1.65.81,1.84,1.94s-.71,3,.93,3.52c1.45.47,2.41-1.06,3.15-2,6.15-8,14.29-13.82,21.48-20.68,2.39-2.28,5-4.36,6.78-7.28.85-1.39,2.6-2.91,4.07-1.86,1.64,1.16.31,3.47-.54,4.49-4.53,5.46-9.29,10.75-14.14,15.94a41.53,41.53,0,0,1-6.76,5.86c-1.29.89-1.88,1.72-1.79,3.17.12,1.95,1.59,1.77,2.92,1.84s3-.17,2.79,1.87a2.39,2.39,0,0,1-3.26,2.19c-9.5-3.9-11.65,6-17.37,9.08-.26.14-.6.57-.54.74,2.84,7.68-2.12,14-3.63,20.89a13.92,13.92,0,0,0,.1,3.46l0,0c-2.91.09-2.78,2.37-3.09,4.33-1,2.51-2.75,3.89-4.9,3.68,2.35-7.21,8.41-13.08,9.22-21.21.37-3.78,3.33-7.39.08-11.66-1.35-1.77,2.07-3.65,3.82-5,2-1.59,3.1-2.45,0-4.52S132.7,521.93,132.11,519Z"/><path class="cls-2" d="M85.71,450a12.22,12.22,0,0,0-4.42-6.71c-1-.8-1-3.37-3.13-2.34-1.61.79-1,2.64-1,4.08-.06,2.49.09,5,0,7.47a20.23,20.23,0,0,1-8.79,15.94c-3.86,2.83-8.53,4.42-12,7.9a2.18,2.18,0,0,1-3.12.39,54.58,54.58,0,0,1,11.28-7.83c9.25-4.63,11.69-12.75,11-22-.3-3.82,2.47-7.53-.94-11.64-5.3-6.39-9.26-8.2-17.12-5.5-1.43.49-2.75,1.91-4.51.72,7.77-6.26,14-6.48,21.39-.54,1.39,1.12,2.46,1.36,3.88.44-3.74,3.61-1.53,5.56,1.89,7.47A37,37,0,0,1,85,441.74c1.82-1.84-.55-4.76,2.23-5.83-.09,4.36,1.81,6.66,6,8.76,7.46,3.74,14.38,8.65,21.23,13.5,2.32,1.64,6.32.41,7.26,4.62a13.21,13.21,0,0,1-7.22-2.73c-4.62-3.13-9.83-5-14.94-7.16-2.67-1.11-5.31-2.18-7.52-4.27C89.55,446.31,87,446.06,85.71,450Z"/><path class="cls-2" d="M628.62,258.16c-4.8-1.85-10.09-2.49-14.25-6-5.53-4.62-12.56-5.68-19.16-7.64-3.19-.94-6.63-1.08-6.21,4.09.06.79,0,1.78-1.08,2a1.78,1.78,0,0,1-2.09-1.66c-.37-4.46-3.27-7.59-5.41-11.16-1.33-2.23-1.78-4.46,1.87-5.15.66-.12,1.28-1,1.74-1.6,2.15-3,4-2.13,5.89.31.9,1.17,2.2,2.06,3,3.3,2.17,3.62,5.48,3.65,8,3.39,2.8-7.15-.19-13.11-2.87-19.13,4.28,2.37,5.42,6.51,5.24,10.81-.16,3.67-.42,6.87,3.51,8.73a.93.93,0,0,1,.11,1.62c-.75-.21-1.5-.43-2.27-.58,0,0-.37.56-.3.74.51,1.19,1.57.82,2.49.82-.2,4,2.72,5,5.72,6.07,3.74,1.35,7.81,1.95,11.17,4.24C626.05,253,628.4,254.85,628.62,258.16Z"/><path class="cls-2" d="M379,553.41a6.44,6.44,0,0,1-2.53,4.4c-2.41,1.65-.86,2.48.63,3.36-5.1,5.64-11.24,8.9-19,9.3-3.85.2-4.56,3.78-4.43,6.72.15,3.29,3.23,2.75,5.45,2.69,10-.28,19.48-1.93,25.42-11.45.8-1.29,2.4-3,3.89-2s.12,2.79-.72,3.95a146.67,146.67,0,0,0-10.45,16.32c-.58,1.08-1.3,2.91-3.33,1.94,1.47-2.33,3-4.61,4.38-7,.68-1.2,2.32-2.55,1.09-3.94s-2.9-.52-4.1.34c-6,4.38-12.94,4.29-19.91,4.08-6.1-.19-7.24-2-4.51-7.56,2.21-4.47.81-7.76-3.89-9a2.32,2.32,0,0,0-1.8.15c-2.34,2.16-3.83.47-5.38-1.06,1.81-5,5.26-2.7,7.88-1.37,12.27,6.24,18,3.59,24.55-4.4C374,556.77,376.07,554.36,379,553.41Z"/><path class="cls-2" d="M144.68,300.58c-1.53,3-4,3.64-8.34,1.07-7.6-4.56-16.57-6.55-23.36-12.57l0,0c-.25-1.83-1.17-3-3.14-3.07-.86-2.49-4.42-2.11-5.09-4.8,2.47-2.52.26-4.6-1.25-5.79-2.3-1.83-4.22-5-7.92-4.21-2.09.42-.17,1.89-.6,2.77-2.64-1.33-5.18-2.68-8.39-1.69-2.34.73-3.4-1.75-4.86-2.86-5.86-4.47-16.66-4-22.18,1.18l-.73-.7c1-3.64,4-4.17,7.38-4.08-1.17-1.87-1.86-2.64-4-1.59-2.76,1.31-6,1.6-9,2.34,4.06-3,8.31-5.06,13.69-4a13.32,13.32,0,0,0,6.34-.72c4.89-1.57,8.87.17,12.37,3.19s7.61,4.24,12.08,4.78c3.53.42,5.83,2.82,8,5.41,2.51,3.06,4.53,6.48,7,9.63,4.7,6.11,10.86,9.29,17.86,11.75C135.11,298.31,139.14,302.07,144.68,300.58Z"/><path class="cls-2" d="M405.1,498.33a17.26,17.26,0,0,1,.32-6.39c1-3.89,2-6.6,6.36-3,2.62,2.16,4.5-.88,6.64-1.48s1.88-3.44,1.46-5.28c-1.84-8.06-.51-16.21-.92-24.3-.08-1.46-.28-3,1.34-4,1.42-.83,2.11-2.58,3.94.4,3.86,6.29,10.38,10.5,14.34,16.95,1.07,1.75,4.58,1.23,6.51.2s.12-3.13-.47-4.35c-2.46-5-4.84-10.16-9.15-14-.84-.75-1.84-1.5-1.61-2.89,4.65,2.19,8.09,5.49,9.75,10.48a16.81,16.81,0,0,0,8.45,9.85c3.61,1.93,7.76,2.88,10.82,5.84-3.78.84-6.8-1.14-9.9-2.72-1.68-.86-3.27-1.89-5.67-3.29,1.14,4.49,6.18,5.4,5.64,9.62-1.77-.44-2.56-2-3.66-3.21s-2.51-2.86-4-2.72c-9.95,1-12.17-8.48-18-13-.63-.5-.94-1.4-1.55-1.94-.92-.8-1.83-2.19-3.28-.69,0,0,0,.07,0,.1-.09-.25-.17-.73-.27-.73-2.57-.12-1.09,1.81-1.11,2.65-.14,7.22-.83,14.39,1.27,21.63,1.73,6-4.75,11.43-10.43,9.39-2.12-.76-3.24-.32-4.48,1.6C406.32,494.71,406.94,497.06,405.1,498.33Z"/><path class="cls-2" d="M42.88,545.81c1.43,5.16-1.73,9.54-2.8,15.67,4-3.17,5.07-7.68,9-9.33,1.68-.7,1.86-4.49,4.62-3.44s2.26,4.06,2.18,6.53c-6-.74-11.16,2-13.39,7.67C40,569.3,36.38,575,33,581s-4.05,13.36-9.73,17.9l.31.62c.05-.15.17-.39.13-.42-2-1.52-1.68-2.9-.4-5,2.88-4.68,5.4-9.27,6-15.29a30,30,0,0,1,7.24-17c1.8-2,2.44-4.64,2.86-7.33C39.91,551.33,40.64,548.24,42.88,545.81Zm-9.51,28.64c2.76-2.24,4.57-4,4.21-7.34C34.1,568.34,33.76,570.88,33.37,574.45ZM40,563.57l-.42-.84c-.16.26-.43.52-.45.79s.23.55.36.83Z"/><path class="cls-2" d="M47.14,670c4.5,2.49,7.75-2.4,11.89-2-1.27,1.9-3.38,2.57-5.29,3.37-2.78,1.18-5.61,2-6.07,5.72-.19,1.57-1.54,2-3,2-.31,0-1.84-.09-.7.74,4.32,3.14.3,4.25-1.21,6.17-3.14,4-4.33,8.77-5.12,13.65-.18,1.1.29,2.55-1.38,2.71A2.89,2.89,0,0,1,33,700c-1.65-5.69-1.93-11.22,2.23-16C39.23,679.36,44.49,675.82,47.14,670Z"/><path class="cls-2" d="M124,492.06c-5,5.09-6.83,12.43-12.47,17-3.54,2.87-7,2.54-9.87-1a31.09,31.09,0,0,1-3.83-5.77c-4-8.18-11.86-8.24-18.75-3.71a7.2,7.2,0,0,1-5,1.51c7.25-9.85,20.72-8.54,26.47,2.72,1.57,3.07,2.81,6.73,6.91,5.54,4.33-1.27,7-4.91,8.38-9.24.56-1.83-.73-3.19-2.34-4-1-.48-1.72-1-1.36-2.21s1.45-1.22,2.42-1.09c1.87.25,3.9.37,5.26-.9C122.07,488.84,122.59,491.84,124,492.06Z"/><path class="cls-2" d="M407.89,546.11c-2.34-2.3-3.75-2.25-4.69,1.13-.71,2.55-1.5,4.92-3.29,6.8-1.93-8.7-.52-16.54,5.81-23.4,2.95-3.19,2.06-8.2,4.34-11.89.51-.83.83-1.78,1.75-3.79,1.74,4.74-.89,7.56-1.95,10.54-1.26,3.58-.11,7.39-1.13,10.8C407.64,540,408.19,543.46,407.89,546.11Z"/><path class="cls-2" d="M22,337.11c4.26-5.88,8.92-1.62,13.29-.33,2.44.72,4.06,2.39,7.41,1.72,5-1,11.12,7.57,10.1,12.73-.19,1-.51,1.92-.78,2.88-.36.23-1.32-.42-1.07.72l1-.77c4.4-1.31,7.83-4.52,13.16-4.38,6.67.18,11.31,3.19,15.93,7.08a15.28,15.28,0,0,1-6-2.22c-7.18-4.72-14.15-4.59-21,.88a51.34,51.34,0,0,1-5.58,3.28c-1.09.66-2.35,1.05-3.08-.1s-.38-2.55,1-3.4a27.43,27.43,0,0,0,2.45-1.7c3.84-3.05,3.62-7.15-.46-9.71-6.23-3.93-13.77-4.38-20.27-7.64C26.16,335.12,24.28,337.88,22,337.11Z"/><path class="cls-2" d="M466.88,489.06c2.93-.16,6-3.62,8.84.25,0,.06,1.5-.95,2.3-1.46,6.77-.65,13.09-3,19.45-5.21,1.18,3.73-.29,8.19,3.14,11.29a7.07,7.07,0,0,1-4.89,3.19c-.52-1.71,1.71-3.54.09-4.93s-3.45-.59-5.2-.05c-5.17,1.59-10.51,2.08-15.32-.49C472.53,490.18,468.7,492.89,466.88,489.06Z"/><path class="cls-2" d="M322.94,575.07c5.81,1.48,13.22,1.31,17,4.94,3.4,3.29,5.05,4.91,9.54,3.54,1.27-.39,3.87.69,4.61,3-5.67-1.9-9.33-.62-12,5.4-2.62,5.85-7.2,6.8-13.34,4.3a4.89,4.89,0,0,0-4.92.24c2.06,1.56,3.52.24,5.33-.22,3.75-1,5.66-4.28,8.92-5.89s2.88-5.78.26-8.42-6.19-3.14-9.53-3.69A9.24,9.24,0,0,1,322.94,575.07Z"/><path class="cls-2" d="M79.09,299.41a8.15,8.15,0,0,1-4.66,5.28c-1.71.78-3.4,2.12-3.43,4.45l-.28.22-.3-.19c-1.55-.09-2.4.57-2.34,2.2-2.29,2.79-3.56,6.25-7.18,8.15-3.24,1.7-2.52,4.45,1,6.26,2.69,1.4,6,1.83,7.76,4.82a2,2,0,0,1-2.33,0c-6.37-4.64-13.23-4.36-20.28-2-1.17.39-1.92.31-2.07-1.08,1.51-1.06,3.21-2.38,4.93-2.07,4.94.88,7-1.66,6.91-5.89,0-2.56,1.68-3.51,3-4.7C65.82,309.21,71.94,303.65,79.09,299.41Z"/><path class="cls-2" d="M74,500.09c-.77,7.33-6.13,11.93-10.72,16.62-6.75,6.92-13.83,13.38-17.58,22.64-.64,1.58.51,4.38-2.51,4.74.09-8.87,4.3-15.88,10.63-21.49C61.48,515.84,67.3,507.57,74,500.09Z"/><path class="cls-2" d="M286.91,124.08c-2.37,9.83-3,20-10.8,28.2a34.68,34.68,0,0,0-8.05,15.52c-1.5,6.35-7.32,10.79-13,9.83,11.48-2.66,12-13.74,16.4-21.73,1.34-2.44,2-5.37,4.26-7.11,4.93-3.89,6.2-9.31,7.29-15C283.7,130.36,283.34,126.39,286.91,124.08Z"/><path class="cls-2" d="M148.55,252.24a1.83,1.83,0,0,1,.07,2.67c-3.58,3.88-6.54,8.76-12.91,8.43a2.37,2.37,0,0,0-1.37.41c-7.13,4.76-14.44,5.29-22,1-1-.58-1.84-.6-2.47.52-1.08-1.35-3.15-1.95-3.09-4.15l.09.12c7.07,2.79,14.7,1.57,22,3a2.18,2.18,0,0,0,1.46-.08C136.34,260.09,144.87,259.87,148.55,252.24Z"/><path class="cls-1" d="M621.86,272.11c-.48,2.37,2.81,5.52-2,6.82,8.09,4.7,8.26,5.07,5.57,12.54-.85-2.47-1.48-5.58-3.74-5.76-2.59-.2-3.34,3.06-4.68,5.42-2.26-2.59-3.11-4.86-1.33-7.91a5.27,5.27,0,0,0-.38-6l.36-3c1.73-1.32,3-2.79,1.52-5.06,0-.72,0-1.44,0-2.16l1.5-1.89C620,267.38,621.53,269.47,621.86,272.11Z"/><path class="cls-2" d="M588,264.05c1.34-1.33-.07-2.15-.34-3.3-.47-2-2.68-5.3,2-5.67,2.5-.2.92-1.88,1.08-3,.29-1.84-1.39-4.58,2.22-4.95-1.42,3.95.3,8-.56,12-3.47,1.91-2.38,5.36-2.3,8.14,0,1.43,2.08,3.79,3.78,3.16,2.29-.86-.33-2.75-.15-4.23,0-.33,0-.66,0-1,4.4,3.08,5,9.22,9.66,12.11.23.13.1,1.3-.21,1.74-.45.63-1.16.15-1.79,0C596.14,277.65,588.74,269.4,588,264.05Z"/><path class="cls-2" d="M251.09,177.74c0,2.76-3,1.76-3.84,2.93-3.12,4.37-7.49,5.5-12.4,5.79-.4,0-.82.54-1.13.91-4.92,5.72-12.65,6.78-18.5,11.08-2.68,2-6.78.63-10.25.66.34-.79.82-1.52,1.75-1.52,8.64,0,15.18-4.84,21.86-9.34,2.33-1.57,4.49-3.33,7.37-3.89,4.21-.81,6.74-4.81,10.94-5.83C248.29,178.18,249.54,177.3,251.09,177.74Z"/><path class="cls-2" d="M489,145.57a3.47,3.47,0,0,1-4.87,2.06c-13.19-5.6-27-10.14-37.26-21-1.21-1.28-3-2.2-3.06-4.33,3,0,3.8,2.94,5.57,4.47,9.54,8.23,20.71,13.35,32.27,17.87C484.09,145.64,486.56,145.12,489,145.57Z"/><path class="cls-2" d="M127.82,583.73c.14,6.09-4.95,9.14-8.92,9.85-11.32,2-19.53,8-26.46,16.54.68-4.61,9.32-14,13.83-14.91,5-1,9.62-3.23,14.35-5.11C123.93,588.79,125.16,585.54,127.82,583.73Z"/><path class="cls-2" d="M59.6,270.65c.09,2.14-2.43,3-2.87,2.43-3-3.55-4.92-.11-7,1-4.08,2.08-11,1.5-13.85-1.38-.62-.62-1.36-1.19-.69-2a2,2,0,0,1,1.67-.72c5.2,2.15,9.2,0,12.93-3.38.2-.18.89.19,1.35.3-1.11,1.72-3,3-3.08,5.3-2.34.33-5-.67-6.85,1.78,2.1-1.39,5.22,1.8,6.82-1.81,3.73-.17,6.59-4.69,10.86-2.14Z"/><path class="cls-2" d="M309,87.32c-8.61,6.48-10.61,16.55-14,25.84-1.64,4.41-2.32,9.53-8.05,10.93,5.33-6,6.7-13.81,9.28-21.08,1.8-5.09,3.59-10.27,7.93-14C305.55,87.81,307,86.73,309,87.32Z"/><path class="cls-2" d="M125.89,348.16c1.65-2.92,5-3.51,7.55-5,2.93-1.74,2.63,2.73,4.55,3.63,1.85-.54.54-3.81,3.12-3.7,2,3-.2,4.77-2.09,6.59-1.58,1.52-4.47,1.38-5.15,4.05-2.18-1.24-5.18-.94-6.57-3.64A15.06,15.06,0,0,0,125.89,348.16Z"/><path class="cls-2" d="M106.94,518.76A38.79,38.79,0,0,1,121.63,505c2.48-1.3,5.21-2.19,6.83.9,1.85,3.54,4.32,7,3.34,11.46-2.62-1.66-2.07-4.71-3.08-7.07-1.85-4.33-3-4.43-7.09-2.31s-6.43,5.56-9.52,8.45C110.61,517.86,109.2,519.19,106.94,518.76Z"/><path class="cls-2" d="M113,289.08c.09,1.49-.17,3.11.33,4.45,2.13,5.68-.93,9-5,12-1.71,1.26-3.31,3.89-5.35,3.11-3.7-1.42-8.3-.71-11.11-3.64-1.89-2-5-2.71-5.87-5.71,2.73-.3,4.08,1.87,5.81,3.31,4.3,3.56,11.18,3.64,15.95,1,7-3.83,4.38-9.32,3.26-14.69l2.06.15Z"/><path class="cls-2" d="M429.25,105.26a28.27,28.27,0,0,1-5.12-11c-1.65-7-5.21-9.88-12.23-9.44a3.94,3.94,0,0,1-1.37-.5c3.49-4.32,6.63-3.34,10.33.1C427,90.16,431.37,96.33,429.25,105.26Z"/><path class="cls-2" d="M164.89,682.56c7.14-7.22,12.85-5.88,16.47,3.21,2.69,6.74,4.21,13.46,3.68,20.68-.14,1.82.16,3.76-2.11,4.56.58-7.88.26-15.55-2.42-23.19-2.61-7.47-3.5-8.39-10.79-6.32C168.13,682,166.5,682.21,164.89,682.56Z"/><path class="cls-2" d="M396.94,96.17c.42,2.6,3.25,5,.91,7.77-.76.89-.69,3.18-2.39,2.56s-3.48-1.41-4.28-3.14c-.67-1.46.41-2.44,1.57-3.23a5.47,5.47,0,0,0,.86-1,4.74,4.74,0,0,0-3.47-1.86c-1.56-.15-2.9-1.2-2.67-2.41,1-5.54-1.1-11.55,2.46-16.68A32.77,32.77,0,0,1,389.31,90c-.54,1.94-1.33,4.16.82,5.42S394.43,98.15,396.94,96.17Z"/><path class="cls-2" d="M242.79,621.65c4.09-7.47,8.57-14.71,11.43-22.84,1.79-5.08,2-10.76,5.54-15.22,1.31-1.64,2-4,4.91-3-5.82,7.08-6.79,16.29-10.63,24.22C251.08,611,249.33,617.92,242.79,621.65Z"/><path class="cls-2" d="M132.92,556.68c.15-1.42-.5-3.4,1.2-4,2-.65,2.1,1.69,2.85,2.75,2.94,4.13,2.73,15.57-.12,19.59-.95,1.35-2.28,1.09-3.57,1.1a108.57,108.57,0,0,0,3.06-10.95C136.93,561.89,138.46,557.73,132.92,556.68Z"/><path class="cls-2" d="M304.59,583c-2.88,3.84-8.17,3.25-10.33,8.23-1.51,3.48-1.8,8.44-6.44,10.29,2-4.11,2.16-9.29,6.94-11.79.68-.36.79-.9,1-1.51C298.09,582.63,298.11,582.64,304.59,583Z"/><path class="cls-2" d="M83.7,459.75c2.36-1.37-1.06-4.6,1.87-5.79,1.49,4.33,1.75,9,3.92,13.16.73,1.41,1.35,3.69-1.08,4-4.88.59-8.63,4.16-13.46,4.69,2.91-3.86,7.5-4.41,11.64-5.78,1.14-.37,2.85-.63,1.85-1.87-1.92-2.39-1.59-5.86-4.16-7.8Z"/><path class="cls-2" d="M233,624l9.68-2.14c-3.22,4.37-8.24,3.51-12.57,3.81-2.89.2-1-2.42-.14-2.75,5.08-2,6.65-6.93,9.47-10.81,1.62,4.57-3,6.23-4.46,9.37-.41.89-1.91,1.22-1.94,2.57l-1.92.17c.09.19.16.52.28.54A1.36,1.36,0,0,0,233,624Z"/><path class="cls-2" d="M28.07,322.07c-.93.34-2.32-.38-2.58,1.45-.69,4.87-3.75,6.45-9.37,5,9.29-2.62,9.29-2.62,5.45-11.55a9.29,9.29,0,0,1-.26-2C24.62,316.83,26.38,319.42,28.07,322.07Z"/><path class="cls-2" d="M91.11,612.42c-1.86,4.21-5.9,4.28-9.16,3.58-5.79-1.23-9.29,1.18-12.25,5.52-.23.33-.83.4-1.26.6,1.39-6,6.75-9.79,12.15-8.09C84.55,615.28,87.64,613.12,91.11,612.42Z"/><path class="cls-2" d="M302.91,562.05c7.68-.7,12.08,5.24,17.58,8.87.71.46.39,2.48.54,3.77C315.25,570.11,309.58,565.37,302.91,562.05Z"/><path class="cls-1" d="M58.87,270c-4.27-2.55-7.13,2-10.86,2.14l0,0c.1-2.31,2-3.58,3.08-5.3l2-.2c3-.74,6.28-1,9-2.34,2.19-1,2.88-.28,4,1.59C62.85,265.78,59.89,266.31,58.87,270Z"/><path class="cls-2" d="M43.12,479.46c-4.79,6.69-7,15-13.3,20.74C34.14,493.21,35.92,484.6,43.12,479.46Z"/><path class="cls-2" d="M388.47,44.25a3,3,0,0,1-2.17-3c.23-7.27-4.61-13.15-5.35-20.13C385.65,28.12,388.6,35.68,388.47,44.25Z"/><path class="cls-2" d="M109,679a20.4,20.4,0,0,1-.61,5.35c-.55,1.75-1,3.81,2.42,2,2.88-1.53,4.07.85,4.2,3.59-3.22-1.57-6.59-.2-10.25-.41C105.52,685.63,106,681.85,109,679Z"/><path class="cls-2" d="M248.41,375.2c-2-.32-4.12-.74-4.48-3.15a5.48,5.48,0,0,1,2.87-5.86c1.94-1.19,4.12-2.33,4.17-5.12v0l2.9-.06a9.34,9.34,0,0,1-3.11,4.28C247.15,368,244.81,370.86,248.41,375.2Z"/><path class="cls-2" d="M251,361.07c-1.79-.12-3.63-.37-2.31-2.84,1.49-2.78,2.56-6.46,7-4.84a28.36,28.36,0,0,1,3.82,2.08L255,360c-.47-1.19,1.08-3.25-1.09-3.57-1.49-.21-2.45,1.27-2.86,2.72a7.5,7.5,0,0,0,0,1.9Z"/><path class="cls-2" d="M141.5,437.71c-3.87,1.29-9.82-.74-11.67-4.07a2.35,2.35,0,0,1,0-1.82,1.07,1.07,0,0,1,1.7-.29c1.68,1.58,4.85,1.27,5.59,3.72s2.87,1.68,4.28,2.5Z"/><path class="cls-2" d="M60.13,648.28c-1.48,4.87-1,10.33-4.75,14.54-1.49,1.65-2.85,3.06-5.13,3.25,3.9-4.65,7.78-9.27,7.82-15.88C58.08,649.55,59.41,648.91,60.13,648.28Z"/><path class="cls-1" d="M95,274c.43-.88-1.49-2.35.6-2.77,3.7-.75,5.62,2.38,7.92,4.21,1.51,1.19,3.72,3.27,1.25,5.79C102.71,277.26,98.46,276.19,95,274Z"/><path class="cls-2" d="M633.88,273.18c.83-3.26-2.31-5.55-2.13-8.66,3.58,2.6,2.73,8.52,7.67,10.23.63.22,1,2.31,0,3.11a2.48,2.48,0,0,1-3.16-.39A25.35,25.35,0,0,1,633.88,273.18Z"/><path class="cls-2" d="M618.75,265.13l-1.5,1.89c-.78-1.23-2.12-2.41-2.22-3.68-.23-2.74-1.51-3.42-4-3.4-1.19,0-2.66-.25-2.92-2,1.35-.2,2.68.24,4-1s3.18-1.58,3.73,1.11C615.85,260.83,618.87,262.34,618.75,265.13Z"/><path class="cls-2" d="M29.42,502.13c.88,4.4-2.91,14.54-6,16C26.38,513.16,26.56,507.15,29.42,502.13Z"/><path class="cls-2" d="M104.79,408.34c4.47-5.82,8.91-6.61,18.1-4.72-.43.19-.86.57-1.28.55C115.57,403.82,109.89,404.93,104.79,408.34Z"/><path class="cls-2" d="M177,669.88c-5.45,1.46-10.17,4.48-15.07,7.11C165.75,672.06,170.28,668.63,177,669.88Z"/><path class="cls-1" d="M593.8,265.27c0,.33,0,.66,0,1-.18,1.48,2.44,3.37.15,4.23-1.7.63-3.75-1.73-3.78-3.16-.08-2.78-1.17-6.23,2.3-8.14.09,1.32.19,2.63.28,3.95-1.2,1.42-.46,1.9,1,2.05Z"/><path class="cls-2" d="M152.71,654c.23-5.11,3-8.85,6.64-12.07C158.39,646.6,155.27,650.12,152.71,654Z"/><path class="cls-2" d="M141.91,467.74c4.18-3,8.11-.61,11.89-.77a1.41,1.41,0,0,1,1.42,1.66,1.62,1.62,0,0,1-2.11,1.51C149.72,468.78,145.84,469.91,141.91,467.74Z"/><path class="cls-2" d="M302.19,577c3.45-1.48,5.82-5,9.48-1.71.5.46,1.49,1,1,2a1.53,1.53,0,0,1-2.14.59C308.09,576.27,305.42,577.35,302.19,577Z"/><path class="cls-2" d="M68.07,625.13c0,4.39.59,9-3.76,12C65.24,633,64.8,628.48,68.07,625.13Z"/><path class="cls-2" d="M267.06,346.26c-.43-3.16,1.56-5.08,4-5.86,1.77-.55,3-1.74,4.61-2.38.36,2.41.13,4.23-3.09,4.07C269.73,341.94,270,346.33,267.06,346.26Z"/><path class="cls-2" d="M144,665.57a5.55,5.55,0,0,1,3.17-2.83c3.21-1.06,4.76-3.46,5.41-6.61,1.88,3.88.27,6.38-3.5,7.18C147.06,663.72,146.1,665.92,144,665.57Z"/><path class="cls-2" d="M390,63.17c-3.67-4-1.87-8.52-1.47-12.93C390.68,54.37,390,58.82,390,63.17Z"/><path class="cls-2" d="M239.36,596.93c2.5,2.64,2.72,9.28.44,13.24C239.21,605.77,240.36,601.32,239.36,596.93Z"/><path class="cls-2" d="M173.78,572.15c6.65-.32,8.22,1.54,6.58,7.79C180.29,575.54,177,573.91,173.78,572.15Z"/><path class="cls-2" d="M388.4,542.65c-1.16-4.82-.33-9.11,3.31-12.67Q390.06,536.33,388.4,542.65Z"/><path class="cls-2" d="M56.83,555.86q1.65-4,3.29-8c1,2.63.14,5.11-.67,7.56C58.91,557.08,58,557.63,56.83,555.86Z"/><path class="cls-1" d="M530.81,174.46c.26,1.22.51,2.44.85,4-2.54-.29-3.72-2-5.08-3.45.89-1.35,2.18-.39,3.13-.85Z"/><path class="cls-1" d="M251,361.09a7.5,7.5,0,0,1,0-1.9c.41-1.45,1.37-2.93,2.86-2.72,2.17.32.62,2.38,1.09,3.57l-1.09,1Z"/><path class="cls-2" d="M278.08,332.3c.19-3.63,3.05-4.35,5.74-5.25C284.25,331.37,280.23,330.81,278.08,332.3Z"/><path class="cls-2" d="M125.64,277.93c3.8-.77,7.4-1,9.18,3.52Z"/><path class="cls-1" d="M273,589c-.28-1.8-1-3.64.4-5.32l4.32.39c-.64,1.81-.9,3.82-2.73,5Z"/><path class="cls-2" d="M581,264.38c-.25-1.73-.19-3.46,1.82-4s3.28.89,4,2.68C584.6,262.05,582.82,263.25,581,264.38Z"/><path class="cls-2" d="M88.17,432.33c.42-2.79-.09-6,3.42-7.37C90.66,427.52,90.39,430.38,88.17,432.33Z"/><path class="cls-2" d="M443.69,122.26c-2.77-.08-4.44-1.39-4.71-4.25C441.69,118.17,442.52,120.4,443.69,122.26Z"/><path class="cls-2" d="M600.84,254.12c2,1,4.91-.22,6.19,2.54C604.77,256.3,601.5,258.4,600.84,254.12Z"/><path class="cls-2" d="M63.81,639.67a10.72,10.72,0,0,1-3,7.49C61.21,644.42,61.28,641.56,63.81,639.67Z"/><path class="cls-2" d="M120.38,275a13.41,13.41,0,0,0,2.91-.06c3.79-.88,2.42,1,1.53,2.72C123.37,276.74,121,277.27,120.38,275Z"/><path class="cls-2" d="M137.92,282.75c3.43-1.68,4.52-.95,4.52,3.06Z"/><path class="cls-2" d="M617.21,269.18c1.45,2.27.21,3.74-1.52,5.06C614.73,272.11,616.33,270.75,617.21,269.18Z"/><path class="cls-2" d="M278.94,582.51c-.66-2.41-1.16-4.76,2.36-5.32C282,579.62,281,581.3,278.94,582.51Z"/><path class="cls-2" d="M453,480c1.82.6,4,.53,5,2.67C455.44,483.44,453.68,482.71,453,480Z"/><path class="cls-2" d="M277.72,584.08l-4.32-.39a2.15,2.15,0,0,1,1.12-2.74l3.94,2.31C278.22,583.54,278,583.81,277.72,584.08Z"/><path class="cls-2" d="M193.54,703.09c-2.48-1.11-1.34-3.31-1.55-5.11C193.93,699.25,194.33,701,193.54,703.09Z"/><path class="cls-1" d="M113,289.12,111,289c-.61-.88-1.37-1.71-1.08-2.92C111.86,286.13,112.78,287.29,113,289.12Z"/><path class="cls-2" d="M260,355.13c.29-2.33,2-2.86,3.94-3.07C263.29,354,261.6,354.5,260,355.13Z"/><path class="cls-2" d="M360,588.83c1.71-1.52,3.14-1.61,4,.82A5.62,5.62,0,0,1,360,588.83Z"/><path class="cls-1" d="M125.08,566.45c.31-2,.18-4.24,3.09-4.33C127.45,563.78,127.77,566.19,125.08,566.45Z"/><path class="cls-2" d="M271.82,574.6c-.77-1.24-.63-2.23,1-2.37s2.43.62,1.85,2.35Z"/><path class="cls-2" d="M265,351.18c0-1.7-.52-3.66,2.05-4.06A3.4,3.4,0,0,1,265,351.18Z"/><path class="cls-2" d="M115.07,690c1.58-.19,2.72.24,2.94,2C116.19,692.53,115.68,691.17,115.07,690Z"/><path class="cls-2" d="M532.89,453.06c-.89-.27-2.73.52-2.28-1.26.33-1.29,1.87-.45,2.89-.27Z"/><path class="cls-2" d="M531.12,459.43c-.45-1.56-.57-3,1.5-3.44C532.68,457.38,532.86,458.83,531.12,459.43Z"/><path class="cls-2" d="M37.07,327.28c0,.87-.13,1.65-1.22,1.74S34,328.6,34,327.36A3.19,3.19,0,0,1,37.07,327.28Z"/><path class="cls-2" d="M248.07,386.25a5.31,5.31,0,0,1,.25-3.7C250,383.91,249.59,385.12,248.07,386.25Z"/><path class="cls-2" d="M294.88,565.72c.36-1.85,1.76-1.72,3.13-1.64A3.18,3.18,0,0,1,294.88,565.72Z"/><path class="cls-1" d="M606.75,241.08c-.92,0-2,.37-2.49-.82-.07-.18.25-.75.3-.74.77.15,1.52.37,2.27.58A1.44,1.44,0,0,1,606.75,241.08Z"/><path class="cls-2" d="M576.75,268.47c.06-1.45.54-2.49,2.27-2.31A2.47,2.47,0,0,1,576.75,268.47Z"/><path class="cls-2" d="M148.09,289.12c0-1,0-2.25,1.35-2,.86.17.52,1.4.44,2.21A1.2,1.2,0,0,1,148.09,289.12Z"/><path class="cls-2" d="M284.2,574.47c-.33-2.41,1.2-2.49,2.92-2.34C286.68,573.57,286,574.76,284.2,574.47Z"/><path class="cls-2" d="M267.21,578.46c-.17-1.83.48-2.51,2.25-1.63C269.35,578.26,268.44,578.59,267.21,578.46Z"/><path class="cls-2" d="M281.6,576.78c-.7-2.12-.07-2.88,2.1-2.06C283.37,575.78,282.87,576.68,281.6,576.78Z"/><path class="cls-2" d="M593.71,265.19c-1.45-.15-2.19-.63-1-2.05Z"/><path class="cls-2" d="M269.78,576.53c-.77-1.92-.2-2.46,1.69-1.65C271.49,576,270.94,576.59,269.78,576.53Z"/><path class="cls-2" d="M298,564.09c0-1.47.91-1.9,2.19-1.92C300.2,563.65,299.48,564.31,298,564.09Z"/><path class="cls-2" d="M528.81,461.72c0-1.42,1-1.66,2.13-1.65C531.13,461.79,530.13,462,528.81,461.72Z"/><path class="cls-2" d="M248.24,381.13c-1.45-.82-1.3-1.53.14-2.17A1.54,1.54,0,0,1,248.24,381.13Z"/><path class="cls-2" d="M99,413.9c-.14-1.23.26-2,1.63-1.94C100.62,413.1,100.23,413.87,99,413.9Z"/><path class="cls-2" d="M150.3,296.33c.67,2.29,0,2.91-2.11,1.68A2.07,2.07,0,0,1,150.3,296.33Z"/><path class="cls-2" d="M151.46,294c.63.14,1.24.39,1,1.19s-1.08.89-1.87.68C150.21,295,150.41,294.28,151.46,294Z"/><path class="cls-2" d="M150.32,289.63c.76-.38,1.58-.66,2.1.24s-.22,1.11-.87,1.33C150.51,291.17,150.26,290.52,150.32,289.63Z"/><path class="cls-2" d="M95.83,417.59c-.14-1.09.35-1.64,1.44-1.68C97.65,417.21,96.91,417.54,95.83,417.59Z"/><path class="cls-2" d="M246,418.32a1.63,1.63,0,0,1-2,1.78C244.14,418.87,245.11,418.62,246,418.32Z"/><path class="cls-2" d="M92,424a1.45,1.45,0,0,1,1.24-2C93.64,423.12,93,423.65,92,424Z"/><path class="cls-2" d="M78.4,425.14c.92.67.9,1.29-.09,1.86A1.14,1.14,0,0,1,78.4,425.14Z"/><path class="cls-2" d="M273,589l2,0c0,1.16-.66,2.09-1.66,1.94S272.64,589.77,273,589Z"/><path class="cls-2" d="M132.92,403.74c.13-.39.21-1.09.38-1.11.88-.11.79.58.76,1.16Z"/><path class="cls-2" d="M141.43,437.75l0,1.15-.42-.12c.14-.36.28-.71.43-1.06Z"/><path class="cls-2" d="M106.82,261.09l.08-.09a1.62,1.62,0,0,1,0,.22A1.46,1.46,0,0,0,106.82,261.09Z"/><path class="cls-2" d="M515.88,276.11c6.34-1.21,9.65-6.5,12.82-11a209.32,209.32,0,0,0,15.51-26.18c2.71-5.36,7-9.21,10.43-13.83,1.31-1.76,2-3.8,3.36-5.44.76-.91,1.81-1.85,3-1.14s.68,2.11,0,3.07a105.85,105.85,0,0,1-6.61,9.32c-4,4.7-6.65,9.6-6.71,16.08-.06,6.29-4.29,11.26-7.24,16.52a33.66,33.66,0,0,0-2.47,4.17c-.36.91-.78,2.4-1.39,2.52-5.9,1.16-8.15,6.85-12.44,10s-9.12,6-13.54,9.14c-5.71,4.08-12.87,5.57-19.9,6.88-4.53.85-8.58,1.38-11.77-2.71a18.86,18.86,0,0,1-1.27-2.64c8.56,3.75,15.74.62,23-1.76,6.85-2.25,11.77-6.83,15.24-13.06Z"/><path class="cls-2" d="M445.58,158.11c-1.87-4.88-3.2-8.75-2.58-12.9.21-1.43-.22-3.33,1.81-3.56,1.77-.2,1.78,1.59,2.25,2.78,2,4.91,3.24,10,5.49,14.88.94,2,1.66,3.71,3.56,5.05,6.8,4.82,6.73,4.86,13.87.49a14.71,14.71,0,0,1,4.17-1.54,2.09,2.09,0,0,1,2.37,1.42,2,2,0,0,1-.3,2.33c-3.44,3.46-6.53,7.38-10.92,9.72-3.15,1.69-10.79-.55-13.87-3.76-3.56-3.71-6-8.21-10-11.84-2.81-2.56-4.85-8-5.84-13.05-1.24-6.37-.44-12.69-1.46-18.95-.32-2-.7-4.45,2.1-4.73,2.37-.24,3.07,1.79,3.62,3.93,2,7.91.82,16.05,1.94,24C442.11,154.39,441.9,156.42,445.58,158.11Z"/><path class="cls-2" d="M340.5,56.22c1.81,15.25,3.59,30.51,5.45,45.76.42,3.46,2.48,6.42,3.08,9.93,2.36,13.77,2.29,27.69,3.17,41.57.72,11.24,2.16,22.42,1.77,33.72a14.69,14.69,0,0,1-.63,4.89c-1.15-10.42-2.07-20.86-3.52-31.23-1.09-7.85-2.86-15.6-4.33-23.4a16.66,16.66,0,0,1-.58-2.91c-.13-18.57-3.19-36.82-5.7-55.16A60.27,60.27,0,0,1,340.5,56.22Z"/><path class="cls-2" d="M243.14,259.79c-.38,11.47-2.19,23.77-2.51,36.21-.18,7.23-3.17,14.39-4.88,21.59-.18.74-.61,1.28-1.3,1.25-1,0-1.24-.87-1.38-1.75-.42-2.65,1.84-4.87,1.66-7.13-.64-8.21,2.43-16.41,0-24.59-.13-.46-.37-1.09-.18-1.41,5.4-8.66,1.9-17.7,1-26.55-.69-6.85-.95-13.82-3.4-20.43-.47-1.28-1-3.8,1-4.39,2.66-.78,2.65,1.67,2.91,3.45.05.33.05.8.25.94C244.36,242.48,242.54,251,243.14,259.79Z"/><path class="cls-2" d="M418.29,415.49c-8.31,9.4-13.44,20.63-18.5,31.92a156.36,156.36,0,0,1-15.86,27.43,10.42,10.42,0,0,0-1.7,7.55c.81,7.32-3.43,13.07-6,19.3-1,2.43-2.56,4.63-3.08,7.29-.21,1.08-.34,2.57-1.93,2.43-1.88-.17-1.8-1.8-1.59-3.07.47-2.67-.62-5.67,1.62-8,3.35,1.13,6.17-.86,4.88-4.07-1.15-2.87.21-3.64,1.81-4.5s2.1-2.13,1.5-3.61c-1.42-3.49.26-6.73.77-10,.53-3.41-.21-3.72-2.83-2-1,.66-2.18,1.44-3,.16-.95-1.44.36-2,1.49-2.42a1.44,1.44,0,0,0,.79-2.06c-.67-1.58-2.61-2.94-1-4.89,2.87-3.41,5.79-6.77,8.8-10.05a1.71,1.71,0,0,1,2.66,0c1.33,1.49,1.07,3,0,4.51-1.91,2.62-4.49,4.94-4,8.89,8.72-6.81,11.35-17.09,15.79-26.17a202.92,202.92,0,0,1,15-26.57C415,416.06,416,414.41,418.29,415.49Z"/><path class="cls-2" d="M554.83,205.14c-1.88,6.33-4.09,13-8.36,18.43-4.54,5.82-6.32,13-10.54,19s-7.75,12.7-14.12,16.94c-1.27.84-3,2.57-4.37.9s.56-3.09,1.76-4c10.49-8.25,13.76-21.1,20.36-31.82.59-1,.7-2.58,1.51-3,6.55-3.53,7.36-10.38,9.7-16.34.56-1.43.89-3,2.86-2.78C555,202.58,554.75,203.83,554.83,205.14Z"/><path class="cls-2" d="M245,222.81c0-8.42-4.32-13.67-7.27-19.43-.63-1.23-2.74-2.47-.93-3.67,2.16-1.43,1.92,1.4,2.75,2.34a39.28,39.28,0,0,1,9,17.66,16.53,16.53,0,0,1-1,11.21,10.81,10.81,0,0,0-.92,8,21.45,21.45,0,0,1-.56,11.67c-2.69-17.9-8.18-34.67-19.1-49.53,4.43.11,5.84,1.17,10.55,8.17C240.11,213.08,240.36,218.24,245,222.81Z"/><path class="cls-2" d="M309.26,391.57c-.93-10.85,7.18-17.67,8.42-26.65h-.77c-2.05,0-3.93,4-5.49,1.4s1.87-4.05,3.76-5.44A54.37,54.37,0,0,0,330.32,344c.65-1.13,1.13-3.34,3.09-2.33,1.22.63,1.07,2.72.49,3.68-5,8.33-5.77,18.64-12.92,26-3.86,4-4.71,10-7.88,14.68A35,35,0,0,1,309.26,391.57Z"/><path class="cls-2" d="M371.76,498c-.64-.92.12-2.43-1.28-3-2.63,8.42-10.23,12.87-15.56,19.09-9.9,11.54-23.16,19.16-35.2,28.18-.46.35-1.24.27-1.87.39,1-3.46,5.78-4.41,5.71-8.82,0-.82,2.79-2.63,3.89-2.36,5,1.23,7.43-2.85,10.81-4.82.78-.46,3-1.24,1.27-3.33-.77-.93.55-1.72,1.27-2.33a147.52,147.52,0,0,0,16-15.53c3-3.44,6-6.91,8.72-10.57,1.63-2.18,3.7-1.87,5.79-1.74a2.55,2.55,0,0,1,2.39,2.19C374,496.84,373.59,497.94,371.76,498Z"/><path class="cls-2" d="M431.29,393.13a5.3,5.3,0,0,1,4.66,1.55c.67.73,1.72,2,2.19,1.88,6-2,5.77,4.83,9.08,6.13,4.09,1.61,5.61,5.52,8.63,8,1.53,1.27,1.4,3.64-1.18,3.15-4-.75-8.33-.16-12-2.47-1.14-.71-2.16-1.3-2.62-2.77-2.23-7-5.1-8.91-12.82-8.61a17.22,17.22,0,0,0-2.48.25c-1.95.34-4.76,2.24-5.39-.77-.46-2.22,2.08-4.28,4.59-4.26C426.72,395.25,428.5,392.27,431.29,393.13Z"/><path class="cls-2" d="M308.92,164.15c-.11,1.13-.21,2.25-.37,4-4-5-9.91-7.22-12.83-12.57-.66-1.21-2.7-2.52-1.08-3.75s2.37,1.14,3.44,2a16.13,16.13,0,0,1,1.92,2.26,1.25,1.25,0,0,0,2.09.14,1.4,1.4,0,0,0,0-2.17c-.46-.45-1.13-.69-1.61-1.13-1.35-1.23-3-2.77-1.91-4.57,1.43-2.31,3.07,0,4.67.43,7.38,2,11,8.31,15.05,13.71,2.12,2.82,1.07,7.41.25,11.1-.35,1.6-1.89,1.89-2.59-.18s-3-3.44-3.12-6.07c-.11-1.91-1.72-3.13-3.82-3.24l-.47-.42Z"/><path class="cls-2" d="M470.87,243a2.8,2.8,0,0,1-2.62-2.09c-.54-2.16,1.48-2.87,3-3.26,8.76-2.23,15.29-7.81,21.61-13.86,3.24-3.09,4.17-7.43,6.63-10.9.92-1.31,1.67-3.5,3.66-2.21,1.43.92.24,2.56-.21,4-2.51,8.25-6.39,15.41-13.6,20.64A42.82,42.82,0,0,1,470.87,243Z"/><path class="cls-2" d="M368.34,168.75c2.08,0,1,2.14,2.45,2.51.08-1.17.08-2.33.27-3.45.27-1.5,1.21-2.06,2.46-1,4.58,3.74,8.5,7.82,7.33,14.51-.71,4.06-.94,8.23-2,12.18-.79,2.92-3.88,5.06-3.29,8.62a1.74,1.74,0,0,1-1.18.42c-1.07-.41-1.28-1.44-1.29-2.46,0-5.8,0-11.61-.13-17.41-.07-2.34,1.07-5.92-3.74-5-1,.19-1.25-.93-1.22-1.78C368.09,173.48,367.49,171,368.34,168.75Z"/><path class="cls-2" d="M341.46,337.91c-1.84-.21-1.83-1.78-1.26-2.92a18.72,18.72,0,0,1,3.44-4.83c11-10.94,16.32-24.88,21.14-39.12,1.15-3.42,2.1-6.9,3.13-10.36.34-1.14.72-2.54,2.2-2,1.18.4.42,1.64.36,2.59-.65,10.62-6.41,19.44-9.86,29.08-3.62,10.1-11.43,17.08-16.76,25.84C342.92,337.67,342.46,337.9,341.46,337.91Z"/><path class="cls-2" d="M309.17,146.8l-9.31-6.16c5.59,0,5.95-2.31,5.45-6.78A104.14,104.14,0,0,1,306,108.5c.12-.83.11-1.76,1.12-2,1.38-.32,1.82.8,1.85,1.75.18,5.57,3,10.62.54,16.89-2.18,5.58-1,12.47-.11,18.75C309.57,144.87,310.08,145.76,309.17,146.8Z"/><path class="cls-2" d="M342.39,158.86c-2.61-8.55-.67-16.82-2.43-24.79-.6-2.69-.41-5.49-1.52-8.21-2-5-.65-10.15-.35-15.25,0-.7.48-1.3,1.3-1a2.34,2.34,0,0,1,1.55,2.3c.3,3.62.33,7.22.86,10.86,1.38,9.45,2.15,19,3.13,28.5C345.2,153.85,343.54,155.87,342.39,158.86Z"/><path class="cls-2" d="M480.63,275.27c-1.61-.36-3.38-.4-4.79-1.13-9.43-4.83-19.94-7.83-27.42-16-1.16-1.28-3.75-2.32-2-4.22s2.48,1,3.57,1.85c5.34,4.37,10.51,9,17.54,10.58,2.26.5,4.05,2.14,6,3.19,4.34,2.33,8.19,4,12.85,1.12,1-.62,1.9.37,2.18,1.41a1.39,1.39,0,0,1-1.08,1.9C485.22,274.28,483.08,275.47,480.63,275.27Z"/><path class="cls-2" d="M417,233.45c-.34-6.61-.72-13.22-1-19.84-.06-1.23-.41-3.14,1.43-3.15s1.33,1.9,1.48,3.14c.61,4.91,1.2,9.82,1.82,14.73,1.11,8.66-1.67,16.68-4,24.77-.23.79-.73,1.72-1.7,1.44-1.43-.41-.71-1.53-.52-2.45C415.67,245.94,417.46,239.85,417,233.45Z"/><path class="cls-2" d="M366.88,31.89c.11,17.06,1.88,32.73,6.74,48.83C366,74.33,361.19,40.45,366.88,31.89Z"/><path class="cls-2" d="M371.42,40.85c3,14.47,7.06,28.74,7.69,43.67-6.44-13.78-7.16-28.74-10.06-43.25Z"/><path class="cls-2" d="M515.91,276.09c-5.42,1.15-9.54,5-14.58,7a29.14,29.14,0,0,1-15.45,2c-1.17-.18-2.54-.42-2.43-1.92s1.61-1.64,2.67-1.8c4.09-.6,8.22,0,12.39-.78,5.23-1,8.86-4.12,12.77-7.14,1.23-.95,1.31-3.89,4.05-2.52,3,1.48.22,3.49.55,5.21Z"/><path class="cls-2" d="M168.9,332.35c-.54-2.4,2-3.22,3.83-4.56,2-1.52,2.88.76,4.26,1.34s.89,3.69,2.86,2.58a5.85,5.85,0,0,0,2.41-4.5c-.14-4.34,4.32-3.61,6-5.9.46-.62,2.93.33,3.45,2a1.88,1.88,0,0,1-1.71,2.54c-5.79-.42-6.4,4.5-7.59,7.92-1.77,5.08-4,4.05-6.74,1.37-1.39-1.34-2.3-1.91-4.05-.31C169.15,337.07,169.15,334.74,168.9,332.35Z"/><path class="cls-2" d="M504.33,231.51c.41,3.66-1.81,5.67-4.09,7.58-6.51,5.45-14.26,8.39-22.28,10.69-1.53.44-3.83.8-4.38-1.12s2-2,3.1-2.27c7.51-1.71,14.17-5.11,20.53-9.32C499.69,235.43,500.35,231.42,504.33,231.51Z"/><path class="cls-2" d="M315.32,131.66c4.1,3.47,4.67,3.31,5.77-1.2.2-.8.53-1.57.79-2.36.85-2.64,2.83-5.83,5.05-5.12,2.6.82.44,4-.21,6.06-.78,2.45-.52,4.94-.91,7.38s-1.27,4.73-3.77,5.43-2.86-2-3.86-3.24C316.74,136.79,314.51,135.09,315.32,131.66Z"/><path class="cls-2" d="M469.74,325.19c-5.48-.09-11.52-6-11.65-11.3,0-.71.12-1.39.84-1.61.4-.12,1.23,0,1.31.19,2,4.95,7.62,2.61,10.83,5.51,1.75,1.59,3.21,2.61,2.82,5.1C473.45,325.84,471.23,324.94,469.74,325.19Z"/><path class="cls-2" d="M466.38,186.4c8.2-3,10.69-10.28,13.95-17,1.05-2.18.18-5.08,2.64-6.75.95-.64,1.74-1.77,3-1a2.08,2.08,0,0,1,.69,2.68c-2.74,5.32-4.4,11.3-8.72,15.66-1.18,1.19-2,2.55-3.16,3.74C472.6,186,470.13,187.59,466.38,186.4Z"/><path class="cls-2" d="M491.36,253.81c-4,6-10.81,5.59-16.53,7a25.11,25.11,0,0,1-12.69.12c-1.34-.37-3.34-.62-2.94-2.64.36-1.77,2.24-1.39,3.35-1,8.07,2.82,15.49,1,22.73-2.81C487.13,253.5,489.09,252.41,491.36,253.81Z"/><path class="cls-2" d="M371.92,144c-1,4.33,1.89,8,1.95,12.15,0,1.39.65,3.46-1.29,3.8s-2.29-1.71-2.51-3.1c-1.13-7-2.14-14-3.09-21-.14-1-.57-2.61.86-3s1.65,1.11,2.13,2.12C371.33,137.77,372.4,140.7,371.92,144Z"/><path class="cls-2" d="M311.93,182.43c-.43,2.34-1.94,3.53-3.83,2.13-5.16-3.8-10.07-7.94-15-12a1.58,1.58,0,0,1-.22-2.57c.8-.78,1.95-1.14,2.69-.43,4.74,4.56,10.38,7.87,15.74,11.57C311.63,181.38,311.72,182,311.93,182.43Z"/><path class="cls-2" d="M272.62,223.15c1.8.27,2.86,1.69,3.79,3,3.35,4.63,6.51,9.41,9.77,14.12.49.71,1,1.4.34,2.18s-1.54.19-2.12-.33a57.21,57.21,0,0,1-13-16.37C270.81,224.56,271,223.43,272.62,223.15Z"/><path class="cls-2" d="M461,183.07c-3.23.46-5.92-.47-8.65-1.09-1.42-.33-2.58-1.11-2.06-2.75.47-1.48,1.92-1.26,2.94-.83,5,2.13,10,.91,14.95.06.83-.14,1.8-.52,2.22.32.56,1.13-.39,1.83-1.28,2.3C466.44,182.48,463.79,183.92,461,183.07Z"/><path class="cls-2" d="M497.06,193.76c.63-7.71,4.86-13.85,5.17-21.16C506.9,176.76,504.22,187.94,497.06,193.76Z"/><path class="cls-2" d="M278.77,195.67c.49.55,1.52,1.18,1.72,2,1.14,4.7,4.09,8.24,7.14,11.74.78.89,1.75,1.92.7,3-1.23,1.3-1.92-.24-2.81-.87-4.84-3.41-6.8-8.58-8.38-13.92C276.71,196.21,277.41,195.49,278.77,195.67Z"/><path class="cls-2" d="M496.94,418.9c-6.15-.77-11.58,1.27-16.84,4.18-3.92,2.16-8.29,1.93-12.59,1.92a1.7,1.7,0,0,1-1.9-1.77c7.5.78,14.05-1.87,20.63-5.1C489.54,416.51,493.62,415.38,496.94,418.9Z"/><path class="cls-2" d="M308,549.08a9.48,9.48,0,0,1-1.22,1.38c-1,.78-2.62,1.24-2.65,2.69-.05,2.12,2.24,1.43,3.33,2.27,2.32,1.79,6,1.41,7.49,4.58-2.34,2.63-4.68-.75-7,0l0,0c-.2-3.46-2.78-2.91-5-3.07-1.48-.1-3.1-.49-3.65-2-.68-1.83,1-2.4,2.21-3.27C303.45,550.26,305.22,548.45,308,549.08Z"/><path class="cls-2" d="M316.22,560.61c3.86.93,5.92,4.69,9.86,5.91s7.3,2.2,10.94-.15c.79,5.36-4.92,4.66-5.86,4-4-2.59-9.45-.51-12.84-4.68C317,564.09,315.67,562.85,316.22,560.61Z"/><path class="cls-2" d="M106.37,338.74c3.78,3.49,7.73,1,11.62.33-3.71,2.75-7.39,5.51-10.34,9.16a2,2,0,0,1-3.07.34c-.86-.83-.51-1.88,0-2.71C106,343.67,105.65,341.08,106.37,338.74Z"/><path class="cls-2" d="M511.88,423.11c-3.7-3.64-8.7-2.91-13.18-3.91,3.22-2.56,7.36-2.54,11.05-3.58,2.07-.59,4.11,1.68,2.92,4.31A9.06,9.06,0,0,0,511.88,423.11Z"/><path class="cls-2" d="M450.48,186.36c2.72-.36,3.44,1.74,4.87,2.69a16.34,16.34,0,0,0,6.66,3c1.18.17,3.15-.68,3.28,1.12.15,2.06-1.9,1.77-3.32,1.89C456.21,195.59,453.68,193.71,450.48,186.36Z"/><path class="cls-2" d="M364,237.78c.53-3.33,1-6.61,1.6-9.84.19-.95.15-2.66,1.9-2.29a2.13,2.13,0,0,1,1.42,2.39,41.61,41.61,0,0,1-1.8,10.68c-.29.94-.9,2.06-2,1.87C363.42,240.3,364.17,238.75,364,237.78Z"/><path class="cls-2" d="M418,170.63c2.61,4.64,3.14,9.68,2.86,14.87a1.31,1.31,0,0,1-1.2,1.34,1.28,1.28,0,0,1-1.55-1.45C418.56,180.47,416,175.7,418,170.63Z"/><path class="cls-2" d="M281.73,309.66c-.6,1.86-1.86,1.45-3,.47-1.62-1.42-3.09-2.95-5.29-3.58a1.91,1.91,0,0,1-1.19-2.45,2.48,2.48,0,0,1,2.64-1.84C276.27,302.22,281.84,308.15,281.73,309.66Z"/><path class="cls-2" d="M437.21,241.5a29.45,29.45,0,0,1,7.74,7c.51.62-.92,1.07-1.45,1.59-.77.74-1.8,1.21-2.61.26a58.87,58.87,0,0,1-4.69-6.22A1.6,1.6,0,0,1,437.21,241.5Z"/><path class="cls-2" d="M100.6,330a17.84,17.84,0,0,0,5.73,8.72c-2.67.33-4.88-1.43-7.71-1.38C96,337.39,96.93,332.49,100.6,330Z"/><path class="cls-2" d="M302.88,206.47c2.63.89,2.45,3.79,4.07,5.34a2.23,2.23,0,0,1,.35,3.11c-.26.35-.81.78-1.17.74-2.55-.3-2.95-2.81-4.29-4.35a3,3,0,0,1-.13-4.05A4.44,4.44,0,0,1,302.88,206.47Z"/><path class="cls-2" d="M495.55,251.93c-1.33-.35-1.68-1.07-1.37-1.93.65-1.81.72-4,2.58-5.13,1.45-.9,3.11-2.63,4.62-.43,1.23,1.81-.27,2.83-1.74,3.85A41.93,41.93,0,0,0,495.55,251.93Z"/><path class="cls-2" d="M400.83,434.21c-.55,1.57-.47,4-3.06,3.5-1.44-.26-3.81-.92-3.31-2.9s2.26-4,4.39-4.14C400.48,430.53,400.55,432.71,400.83,434.21Z"/><path class="cls-2" d="M391.93,244.17c0,2.76,0,5.51,0,8.26,0,1.5-.18,3.34-2.15,3.17s-1.58-2.07-1.83-3.5C387.34,248.74,390.65,247.07,391.93,244.17Z"/><path class="cls-2" d="M167.9,293.85c-1.58-4.61-1-8.16-.86-11.63a1.79,1.79,0,0,1,2.43-1.77,2.6,2.6,0,0,1,1.59,3.28C170.28,286.76,169.21,289.71,167.9,293.85Z"/><path class="cls-2" d="M345,241.56c-.6,2.29-.69,5.22-3.65,6.17-1.08.35-1.69-1.36-1.19-2.14,1.45-2.24-.63-6.22,3.13-7.1C345.18,238,344.74,240.13,345,241.56Z"/><path class="cls-2" d="M232.54,530.77c-2.12-.31-2.44-1.53-2.5-2.95-.1-2.39.85-3.92,3.42-3.79,1.13.05,3.45-.52,2.87,1.41S233.78,529.12,232.54,530.77Z"/><path class="cls-2" d="M386.05,162.82c-.71,1.92,1.17,5.55-2.07,5.48-2.09-.06-1-3.6-1-5.55s-.77-5,1.63-4.9S385.38,161.08,386.05,162.82Z"/><path class="cls-2" d="M296.42,233.73c1.89.82,5.15-.55,5.33,3a2.12,2.12,0,0,1-3,2.18c-2.16-.72-4.58-1.61-4.56-4.47C294.17,232.93,295.48,233.43,296.42,233.73Z"/><path class="cls-2" d="M485.14,336.68a2.13,2.13,0,0,1-2.11-2.35,3.59,3.59,0,0,1,3.44-4,1.92,1.92,0,0,1,2.16,2.12C488.48,334.67,486.77,335.73,485.14,336.68Z"/><path class="cls-2" d="M159.64,252.2c0,4.44,3.28,6.87,1.68,11C158.38,260.14,154.73,257.89,159.64,252.2Z"/><path class="cls-2" d="M235.74,436.71c0,1.24-5.74,6.25-6.85,5.9a1,1,0,0,1-.68-1.56,18.38,18.38,0,0,1,6.49-5.71C235.24,435,235.71,436,235.74,436.71Z"/><path class="cls-2" d="M218.39,469.18a9.24,9.24,0,0,1,4.13,4.67c.37.79-.91,1.26-1.73,1.1-2.11-.42-4.28-.94-4.7-3.54C215.88,470.13,216.45,469.17,218.39,469.18Z"/><path class="cls-2" d="M83.33,331.32c2.18.31,3.5.94,4.3,2.26a2.9,2.9,0,0,1-.39,3.64c-.63.7-1.27,1.75-2.39,1.29-1.39-.57-.7-2-.87-3C83.78,334.23,83.59,333,83.33,331.32Z"/><path class="cls-2" d="M244.62,507.06c-.33,1.39-1.18,2.52-2.56,2.51a2.82,2.82,0,0,1-2.77-2.86c-.12-1.64,1.26-1.63,2.4-1.63C243.09,505.07,244.26,505.47,244.62,507.06Z"/><path class="cls-2" d="M497.52,482.63l1.38-4.6a2.58,2.58,0,0,1,4.2-.59c1.53,1.55-.57,2.55-1.48,3.5C500.56,482,499.58,483.78,497.52,482.63Z"/><path class="cls-2" d="M439,414.57a11.36,11.36,0,0,1-9.1-2.5C433.74,410,436.24,412.79,439,414.57Z"/><path class="cls-2" d="M493.87,478.92c-2.74,1.72-5.41,3.61-8.91,3.25C486.48,477.1,490.17,478,493.87,478.92Z"/><path class="cls-2" d="M155.91,325.68c-1.6,3.27-3.63,3.92-6.63,2.75C150.46,325.22,152.58,324.67,155.91,325.68Z"/><path class="cls-2" d="M425.91,412c-1.89,2.56-5.36,1.6-7.58,3.41C419.55,411.41,422,410.1,425.91,412Z"/><path class="cls-2" d="M319.08,150.09c-.19,1.34-.47,2.8-2.18,2.72s-2.11-1.39-2-2.83.77-2.62,2.34-2.69C319.19,147.21,319,148.78,319.08,150.09Z"/><path class="cls-2" d="M288.22,169.08a2.56,2.56,0,0,1-2.22-2.86,1.91,1.91,0,0,1,2.15-2.13c1.56,0,2.68.74,2.49,2.36A2.57,2.57,0,0,1,288.22,169.08Z"/><path class="cls-2" d="M169.89,312.36c-1.07-2.55-1.14-5.09-.2-8.43C171.58,307.21,171,309.79,169.89,312.36Z"/><path class="cls-2" d="M473.78,476.76c2.51-.59,4-3.88,7.13-2.77C478.58,475,477.73,479.88,473.78,476.76Z"/><path class="cls-2" d="M519,427.75c-2.79-.54-4.18-3.18-6.53-4.38C516.17,422.5,517.78,424.81,519,427.75Z"/><path class="cls-2" d="M119.12,338.14l3.2-6C123.4,335.29,122.24,337.24,119.12,338.14Z"/><path class="cls-2" d="M525.83,424.34a2,2,0,0,1,1.94,1.83,1.35,1.35,0,0,1-1.22,1.78,1.91,1.91,0,0,1-2.31-1.95C524.22,425.09,524.87,424.54,525.83,424.34Z"/><path class="cls-2" d="M122.22,328l-3.3-5.91C121.82,323.1,123,325.05,122.22,328Z"/><path class="cls-2" d="M465.79,476.68a9.56,9.56,0,0,1,5.25.12C469.2,480.61,467.5,478.55,465.79,476.68Z"/><path class="cls-2" d="M75,331.17c1.61-.83,3-2.16,5-2.09C79.12,331.63,77.69,332.87,75,331.17Z"/><path class="cls-2" d="M557.22,250.67c.26-1.85.6-3.07,2.14-3.33.31-.05,1,.45,1,.7C560.41,249.77,558.89,249.91,557.22,250.67Z"/><path class="cls-2" d="M80.5,328.76c1-1.7,1.79-3.48,3.6-4.49C83.76,326.46,83.93,329.06,80.5,328.76Z"/><path class="cls-2" d="M565.46,243.56c-.29.28-.66.84-1.16,1-.66.24-1.22-.12-1.19-.93s.26-1.24,1-1.3S565.42,242.4,565.46,243.56Z"/><path class="cls-2" d="M311.94,546c-.9,1.56-1.95,2.93-3.95,3.06C308.09,546.5,309.84,546,311.94,546Z"/><path class="cls-2" d="M370.06,276.12v-6.35C371.23,272.44,371.31,273.83,370.06,276.12Z"/><path class="cls-2" d="M532,447.4c-.32.48-.5,1.08-.81,1.16-.86.21-1.1-.5-1-1.14a1.21,1.21,0,0,1,.82-.86C531.25,446.54,531.57,447.06,532,447.4Z"/><path class="cls-2" d="M338.89,103.77a18.11,18.11,0,0,1,0,2c0,.17-.35.3-.54.44a14.92,14.92,0,0,1-.26-1.74C338.05,104.34,338.4,104.18,338.89,103.77Z"/><path class="cls-2" d="M71,330.92a1.32,1.32,0,0,1,2,.23C72.19,332.31,71.54,332,71,330.92Z"/><path class="cls-2" d="M412.46,414.8c-.11.25-.16.65-.35.72s-.49-.18-.75-.29c.11-.25.17-.65.35-.72S412.21,414.68,412.46,414.8Z"/><path class="cls-2" d="M307.93,560l-.19.4c.07-.12.15-.24.23-.36Z"/><path class="cls-1" d="M425,130.15c-.36-.61-.79-1-.73-1.32s.57-.7.88-1.05c.24.33.68.67.67,1S425.38,129.52,425,130.15Z"/><path class="cls-2" d="M368.94,543.11c-5.94,1.36-10.27,6.22-15.34,8.22-7.52,3-15.14,8.08-24.14,6a10.46,10.46,0,0,1-2.4-.63c-1.76-.89-3.66-1.74-4.06-4a1.32,1.32,0,0,1,.66-1.1c2.21-.68,3.83.31,5.2,2a4.71,4.71,0,0,0,4.37,2c6.78-1.1,14-1.29,18-8.34,1.58-2.78,4.33-3.77,7-4.21A45,45,0,0,0,370,539.25Z"/><path class="cls-2" d="M392.7,507c5.93-12.49,8.69-25.79,10.22-39.42.17-1.48,0-3.08,1.94-3.58a97.61,97.61,0,0,1-5.38,33.71C398.36,500.83,396.66,505.12,392.7,507Z"/><path class="cls-2" d="M374,533.07c6.92-5.68,7.91-15.47,14.72-21.22.93,2.85-1.79,4.08-2.86,5.95-2.86,5-3.86,11.35-9.64,14.41A23.71,23.71,0,0,1,374,533.07Z"/><path class="cls-2" d="M379.47,552.15c-1.08-3,.75-5.66,1.73-7.9,2.28-5.24.92-6.91-4.35-6.62,1.14-2.92,3.52-1.69,5.41-1.39a2.33,2.33,0,0,1,1.8,3C382.35,543.51,383.06,548.61,379.47,552.15Z"/><path class="cls-2" d="M410.69,443.38c-2.06-3.05-.91-5.63,2-6.78s6.55-1.78,8.27,2.46c-2.58.25-4.71,2.48-7.86.89C411.42,439.13,411.83,442.39,410.69,443.38Z"/><path class="cls-2" d="M411.82,467.74c2.19,4.65,0,9.05-.26,13.53a1.89,1.89,0,0,1-1.3,1.27c-1.05.09-1.14-.85-1.27-1.7C408.29,476.13,411.69,472.31,411.82,467.74Z"/><path class="cls-2" d="M421.85,441.07c2.89.62,4.38,2.89,6,5-3.71.19-5.53-3-8.48-4.39A2.53,2.53,0,0,1,421.85,441.07Z"/><path class="cls-2" d="M388.73,511.88a8.29,8.29,0,0,1,3.66-4.51C392.93,510.31,392.19,512.2,388.73,511.88Z"/><path class="cls-2" d="M429.79,446.71c2.24.09,3.8,1,4,3.43A4.62,4.62,0,0,1,429.79,446.71Z"/><path class="cls-2" d="M371.83,537.2c-.47-1.75,1-2.5,1.87-3.54C374.24,535.46,374.3,537,371.83,537.2Z"/><path class="cls-2" d="M84.28,460.34c-.33.23-.66.75-1,.09-.06-.12.27-.45.43-.68Z"/><path class="cls-1" d="M146.9,754.38c-10.24,3.22-17.39-2.31-24.16-8.88C131,747.77,137.34,755.67,146.9,754.38Z"/><path class="cls-1" d="M155.94,750.93a17.34,17.34,0,0,0,5.07-7.37c.47-1.36,1-4.16,3.47-1,.9,1.17,2.65.45,3.76-1,1.44-1.89,3.16-3.58,5.17-5.82-.7,6.94-7,12.27-17.37,15.32Z"/><path class="cls-1" d="M180.17,723.52a4.22,4.22,0,0,1-1.43,4.31A3.93,3.93,0,0,1,180.17,723.52Z"/><path class="cls-1" d="M156,751.05c-.37.22-.74.46-1.12.66,0,0-.18-.23-.28-.35l1.3-.43Z"/><path class="cls-1" d="M332,30.22V44.56l-1.82-.1c.1-4.81.26-9.62,1.69-14.34Z"/><path class="cls-1" d="M33.37,574.45c.39-3.57.73-6.11,4.21-7.34C37.94,570.5,36.13,572.21,33.37,574.45Z"/><path class="cls-1" d="M40,563.57l-.51.78c-.13-.28-.37-.56-.36-.83s.29-.53.45-.79Z"/><path class="cls-1" d="M52,354.06l-1,.77c-.25-1.14.71-.49,1.07-.72Z"/><path class="cls-1" d="M70.42,309.17l-2.34,2.2C68,309.74,68.87,309.08,70.42,309.17Z"/><path class="cls-1" d="M48,272.09c-1.6,3.61-4.72.42-6.82,1.81,1.88-2.45,4.51-1.45,6.85-1.78Z"/><path class="cls-1" d="M233,624a1.36,1.36,0,0,1-1.6.76c-.12,0-.19-.35-.28-.54l1.92-.17Z"/><path class="cls-1" d="M308.92,164.15l-.41-.48.47.42Z"/></g></g></svg>